<svg xmlns="http://www.w3.org/2000/svg" width="1440" height="441" fill="none"><path fill="url(#a)" d="M0 0h1440v301.2c-154.98-30.7-280.07 84.56-344.14 122.2-109.83 53.61-308.74-72.4-464.94 7.53-125.7 39.96-106.78-50.97-283.12-64.87-101.3-7.98-227 65.45-347.8-46.32V0Z"/><mask id="c" width="1440" height="441" x="0" y="0" maskUnits="userSpaceOnUse" style="mask-type:alpha"><path fill="url(#b)" d="M0 0h1440v301.2c-154.98-30.7-280.07 84.56-344.14 122.2-109.83 53.61-308.74-72.4-464.94 7.53-125.7 39.96-106.78-50.97-283.12-64.87-101.3-7.98-227 65.45-347.8-46.32V0Z"/></mask><g mask="url(#c)"><path fill="url(#d)" d="M161-3h1118l-278.5 527h-562L161-3Z"/></g><g opacity=".2"><path fill="#F0F0F0" d="m282.32 27.26-3.34 1.83 3.34 1.82 1.82 3.35 1.83-3.35 3.34-1.82-3.34-1.83-1.83-3.34-1.82 3.34Z"/><path fill="#EBEBEB" d="m269.67 22.67-1.67.91 1.67.91.91 1.67.91-1.67 1.67-.91-1.67-.91-.91-1.67-.91 1.67Z"/></g><g opacity=".2"><path fill="#F0F0F0" d="m1196.32 38.26-3.34 1.83 3.34 1.83 1.83 3.34 1.83-3.34 3.34-1.83-3.34-1.83-1.83-3.34-1.83 3.34Z"/><path fill="#EBEBEB" d="m1183.67 33.67-1.67.91 1.67.91.91 1.67.91-1.67 1.67-.91-1.67-.91-.91-1.67-.91 1.67Z"/></g><g opacity=".2"><path fill="#F0F0F0" d="m1297.32 92.26-3.34 1.83 3.34 1.83 1.83 3.34 1.83-3.34 3.34-1.83-3.34-1.83-1.83-3.34-1.83 3.34Z"/><path fill="#EBEBEB" d="m1284.67 87.67-1.67.91 1.67.91.91 1.67.91-1.67 1.67-.91-1.67-.91-.91-1.67-.91 1.67Z"/></g><g opacity=".2"><path fill="#F0F0F0" d="m142.17 34.8 1.08 3.65 2.5-2.88 3.64-1.08-2.88-2.49-1.08-3.66-2.49 2.88-3.65 1.09 2.88 2.5Z"/><path fill="#EBEBEB" d="m135.02 46.2.54 1.83 1.25-1.45 1.81-.54-1.44-1.24-.54-1.82-1.24 1.43-1.82.55 1.44 1.24Z"/></g><g opacity=".2"><path fill="#F0F0F0" d="m343.24 178.25 2.84 2.53.6-3.76 2.54-2.84-3.77-.6-2.83-2.54-.6 3.77-2.54 2.84 3.76.6Z"/><path fill="#EBEBEB" d="m343.15 191.71 1.42 1.26.3-1.87 1.27-1.43-1.88-.3-1.42-1.26-.3 1.88-1.26 1.42 1.87.3Z"/></g><g opacity=".2"><path fill="#F0F0F0" d="m1141.24 185.25 2.84 2.53.6-3.76 2.54-2.84-3.77-.6-2.84-2.54-.59 3.77-2.54 2.84 3.76.6Z"/><path fill="#EBEBEB" d="m1141.15 198.71 1.42 1.26.31-1.87 1.26-1.43-1.88-.3-1.42-1.26-.29 1.88-1.27 1.42 1.87.3Z"/></g><g opacity=".2"><path fill="#F0F0F0" d="m1334.24 35.25 2.84 2.53.6-3.76 2.54-2.84-3.77-.6-2.84-2.54-.59 3.77-2.54 2.84 3.76.6Z"/><path fill="#EBEBEB" d="m1334.15 48.71 1.42 1.26.31-1.87 1.26-1.43-1.88-.3-1.42-1.26-.29 1.88-1.27 1.42 1.87.3Z"/></g><path fill="#F0F0F0" d="m356.11 100.4-2.07 1.13 2.07 1.14 1.13 2.07 1.14-2.07 2.07-1.14-2.07-1.13-1.14-2.08-1.13 2.08Zm-241.04 1.67-2.07 1.14 2.07 1.13 1.14 2.08 1.13-2.08 2.08-1.13-2.08-1.14-1.13-2.07-1.14 2.07ZM384.52 57.3l-2.07 1.14 2.07 1.13 1.14 2.08 1.13-2.08 2.08-1.13-2.08-1.14-1.13-2.07-1.14 2.07Zm-183.45 61.77L199 120.2l2.07 1.14 1.14 2.07 1.13-2.07 2.08-1.14-2.08-1.13-1.13-2.07-1.14 2.07Z" opacity=".2"/><g fill="#FF406E" clip-path="url(#e)"><path d="m1278.36 179.95-4.32-27.93c-.14-.95.5-1.84 1.46-2 .97-.16 1.84.5 2 1.46l.05.2.81 28.27Zm9.28 5.15 18.62-10.97a1.74 1.74 0 0 1 2.39.63c.48.84.22 1.9-.62 2.39l-.27.07-20.12 7.89Zm-.23 10.27 24.11 3.93a1.75 1.75 0 0 1 1.44 2 1.76 1.76 0 0 1-1.99 1.44.45.45 0 0 1-.23-.07l-23.33-7.3Zm-4.65 7.25 11.76 24.97c.41.85.05 1.9-.82 2.32h-.02c-.85.4-1.9.05-2.31-.82v-.02l-.06-.2-8.55-26.25Zm-9.66-1.73-10.02 25.38a1.73 1.73 0 1 1-3.13-1.46l13.17-23.9-.02-.02Zm-6.72-7.5-21.81 11.05c-.88.44-1.95.09-2.37-.79a1.76 1.76 0 0 1 .78-2.37l.23-.07 23.17-7.82Zm2.24-9.25-21.86-14.54c-.66-.7-.63-1.8.09-2.47a1.76 1.76 0 0 1 1.8-.35l.18.14 19.78 17.22h.01Zm3.71-7.06-6.73-18.44a.9.9 0 0 1 .51-1.13.9.9 0 0 1 1.13.52l5.09 19.05Zm10.78-4.16 1.7-15.01a.89.89 0 0 1 .96-.79.9.9 0 0 1 .78.97l.04.1-3.46 14.73h-.02Zm5.69 6.62 10.85-9.8a.84.84 0 0 1 1.2.05l.01.02c.32.36.31.9-.05 1.22l-.11.03-11.92 8.5.02-.02Zm5.52 13.26 11.61-1.6c.48-.08.92.26.98.74a.86.86 0 0 1-.75.99l-.13.03-11.72-.16h.01Zm-5.86 6.48 10.18 4.87c.42.22.62.73.41 1.16a.87.87 0 0 1-1.16.41l-9.43-6.44Zm-16.18 11.55-2.21 9.85a.9.9 0 0 1-1.04.68.87.87 0 0 1-.65-1.04l-.04-.12 3.94-9.35v-.02Zm-7.99-11.8-6.7 6.84a.84.84 0 0 1-1.19.05l-.04-.04a.89.89 0 0 1 0-1.23l.15-.03 7.8-5.6h-.02Zm4.42 3.03-4.88 9.52a.87.87 0 0 1-1.23.23.88.88 0 0 1-.34-1.04l.11-.03 6.34-8.7v.02Zm-6.54-9.22-6.48 2.64a.88.88 0 0 1-.66-1.63l.19-.05 6.94-.96h.01Zm.41-7.75-11.35-4.16a.9.9 0 0 1-.52-1.12.87.87 0 0 1 1.11-.52l.11-.04 10.64 5.82.01.02Zm14.12 38.16c.46 1.59 1.26 3.59 1.67 5.37.54 2.41.34 5.78 0 8.55-.34 2.77-1.26 5.4-1.17 8.35.05 1.49.42 2.98.91 3.95a13.01 13.01 0 0 1 1.51 5.5c.2 11.17.8 36.67.77 40.05.57 0 1.03-27.88.92-41.45-.01-2.25-.76-4.35-1.69-6.4a5.38 5.38 0 0 1-.34-1.23 13.8 13.8 0 0 1 .2-4.63c.28-1.37.66-2.5.92-3.84.63-2.94.72-6.94.25-10.15-.32-2.2-.9-3.98-1.6-4.98a3.4 3.4 0 0 1-.62-2.52c.48-2.89.37-6.8-.34-9.19-.2-.68-.75-1.3-.77-.73-.34 11.51-1.66 9.87-.62 13.35Zm3.69-30.04a2.03 2.03 0 1 1-4.07 0 2.03 2.03 0 0 1 4.07 0Z"/></g><g fill="#FF406E" clip-path="url(#f)"><path d="m178.22 193.82-3.7-24.1a1.5 1.5 0 1 1 2.97-.47l.03.17.7 24.38v.02Zm8 4.44 16-9.46a1.5 1.5 0 0 1 2.06.53c.4.72.18 1.65-.54 2.06l-.22.06-17.28 6.8-.02.01Zm-.2 8.84 20.71 3.4c.82.15 1.37.9 1.23 1.73a1.5 1.5 0 0 1-1.72 1.24.4.4 0 0 1-.2-.07L186 207.1h.02Zm-4 6.26 10.12 21.52a1.5 1.5 0 0 1-.7 2 1.5 1.5 0 0 1-1.98-.7s-.05-.13-.05-.17l-7.34-22.63-.05-.02Zm-8.31-1.5-8.62 21.9a1.5 1.5 0 1 1-2.78-1.12c0-.06.04-.12.08-.19l11.32-20.6v.01Zm-5.77-6.46-18.73 9.53c-.76.37-1.66.08-2.05-.68a1.52 1.52 0 0 1 .68-2.06l.2-.06 19.9-6.75v.02Zm1.93-7.96-18.78-12.55a1.5 1.5 0 0 1 .07-2.12c.4-.39 1.02-.51 1.55-.3l.16.12 17.01 14.83-.01.02Zm3.19-6.11-5.77-15.9a.75.75 0 1 1 1.41-.51l4.38 16.4h-.02Zm9.25-3.58 1.45-12.94a.76.76 0 0 1 .82-.68c.41.04.72.41.68.82v.09l-2.95 12.69v.02Zm4.89 5.72 9.32-8.46a.71.71 0 0 1 1.02.05c.27.3.25.78-.04 1.04h-.08l-10.24 7.35.02.02Zm4.75 11.42 9.97-1.38c.41-.06.8.23.84.66.06.4-.22.8-.66.84h-.1l-10.07-.12h.02Zm-5.03 5.59 8.74 4.2c.37.19.53.62.34 1a.73.73 0 0 1-1 .36l-8.1-5.56h.02ZM173 220.44l-1.9 8.5a.75.75 0 0 1-1.48-.31l-.02-.1 3.4-8.07v-.02Zm-6.84-10.18-5.75 5.9a.7.7 0 0 1-1.03.04l-.02-.02a.77.77 0 0 1 0-1.07l.13-.04 6.71-4.81h-.04Zm3.79 2.63-4.2 8.2a.78.78 0 0 1-1.06.21c-.29-.2-.41-.57-.29-.9h.08l5.47-7.51Zm-5.61-7.96-5.57 2.28a.76.76 0 0 1-.98-.41.77.77 0 0 1 .4-.99.6.6 0 0 1 .17-.04l5.96-.82.02-.02Zm.35-6.69-9.75-3.58a.77.77 0 0 1-.45-.97c.14-.38.57-.6.96-.45h.09l9.15 5Zm12.11 32.9c.41 1.36 1.09 3.1 1.44 4.63.47 2.07.28 5 0 7.38-.29 2.39-1.09 4.65-1 7.2a8.8 8.8 0 0 0 .77 3.4c.74 1.5 1.27 3.06 1.3 4.73.16 9.63.69 31.62.65 34.52.49 0 .9-24.03.8-35.74 0-1.93-.66-3.74-1.46-5.5a3.8 3.8 0 0 1-.29-1.06c-.2-1.25-.06-2.8.17-3.97.22-1.2.55-2.14.8-3.31.53-2.53.61-5.99.2-8.74-.28-1.9-.78-3.44-1.37-4.3a2.95 2.95 0 0 1-.53-2.18c.4-2.5.3-5.87-.29-7.92-.16-.58-.63-1.12-.65-.64-.29 9.91-1.42 8.5-.54 11.5Zm3.18-25.88a1.74 1.74 0 1 1-3.48 0 1.74 1.74 0 1 1 3.48 0Z"/></g><path fill="#407BFF" d="M740.09 212.47a61.23 61.23 0 0 1 7.28-5.25 69.82 69.82 0 0 1 7.9-4.2 66.44 66.44 0 0 0-3.86 4.12c-.41.46-.8.95-1.19 1.42a60.8 60.8 0 0 0-7.11 4.82 39.68 39.68 0 0 0-6.14 5.87c.4-1.13.83-2.28 1.36-3.4l.4-.86.42-.84c.28-.57.6-1.11.9-1.67l.04-.01Z"/><path fill="#000" d="M740.09 212.47a61.23 61.23 0 0 1 7.28-5.25 69.82 69.82 0 0 1 7.9-4.2 66.44 66.44 0 0 0-3.86 4.12c-.41.46-.8.95-1.19 1.42a60.8 60.8 0 0 0-7.11 4.82 39.68 39.68 0 0 0-6.14 5.87c.4-1.13.83-2.28 1.36-3.4l.4-.86.42-.84c.28-.57.6-1.11.9-1.67l.04-.01Z" opacity=".2"/><path fill="#407BFF" d="M957.2 267.62a6.7 6.7 0 0 1-.71 2.82c-.46.99-1.19 1.86-1.65 2.84-.14.33 3 2.85 3.42 2.72 1.17-.36 1.84-1.28 2.14-2.43.36-1.36.08-2.32-.32-3.63-.14-.5-.97-.99-1.34-1.28-.17-.14-1.55-.92-1.56-1.02l.03-.02Zm-119.68-56.48c-1.46.62-2.43 2.39-3.19 3.73-.82 1.46-1.7 3.07-1.64 4.77.02.53 3.43 3.18 3.68 2.94 1.13-1.05 1.56-2.9 2.32-4.25.77-1.37 2.08-2.82 2.4-4.36.1-.46-3.16-3.01-3.57-2.83Z"/><path fill="#FF9D0A" d="M458.7 284.9s0 .12-.02.17c.02-.05.02-.1.02-.17Zm-1.17-1.2c.19.1.4.2.62.29-.75-.63-1.8-.95-.62-.3Zm-48.03-56.51c.52.04 1.04.05 1.56.04-.51-.03-1.04-.07-1.54-.14l-.02.08v.02Zm-.3 7.92.45.3c-.14-.24-.31-.43-.46-.3Zm-3.25-11.81-.03.12c.4.06.8.09 1.2.13-.4-.06-.79-.14-1.18-.23v-.02Z"/><path fill="#FF9D0A" d="M410.6 223.59c-1.16.15-2.32.12-3.45-.05-.41-.03-.82-.07-1.22-.13a18.8 18.8 0 0 0-.46 2.8 22 22 0 0 0 4.05.9c.28-1.18.65-2.36 1.09-3.52Z"/><path fill="#FF9D0A" d="M410.62 223.56a72.67 72.67 0 0 1 3.9-8.32 75.2 75.2 0 0 1 10.99-15.76c4.05-4.43 9.05-9.36 14.46-10.72a8.89 8.89 0 0 1 5.63.28c.08.03.16.09.25.11-.25-.78-.57-1.56-.94-2.27a9.78 9.78 0 0 0-3.46-1.96c-5.78-1.67-11.59 2.92-16.16 7.24a71.68 71.68 0 0 0-12.74 16.13 76.35 76.35 0 0 0-4.67 9.45 37.66 37.66 0 0 0-1.9 5.53c.38.11.78.18 1.18.24 1.14.1 2.3.1 3.46.01v.04Zm-4.69-.16c-1.43-.2-2.86-.51-4.22-1a15.65 15.65 0 0 1-5.27-2.87 21.6 21.6 0 0 1-2.63-2.05c2.95 3.84 6.72 6.98 10.98 8.51.22.06.44.15.66.23.07-.93.24-1.86.47-2.8l.01-.01Z"/><path fill="#110E98" d="M405.93 223.4c-1.43-.2-2.86-.51-4.22-1a15.65 15.65 0 0 1-5.27-2.87 21.6 21.6 0 0 1-2.63-2.05c2.95 3.84 6.72 6.98 10.98 8.51.22.06.44.15.66.23.07-.93.24-1.86.47-2.8l.01-.01Z" opacity=".2"/><path fill="#FF9D0A" d="M409.52 227.1a22.06 22.06 0 0 1-4.05-.9c0 .13-.03.25-.03.36 1.32.32 2.7.54 4.07.63l.02-.08h-.01Zm36.65-37.78a1.9 1.9 0 0 1-.15-.55c1.23 1.1 1.51 1.42.83.94a3.79 3.79 0 0 0-.65-.38h-.01c.15.38.38.78.47 1.13a9 9 0 0 1 .27 2.33c-.01 1.6-.43 3.22-1.03 4.71-2.35 5.96-7.32 10.63-11.72 14.57-4.71 4.2-9.91 7.76-15.5 9.77-2.5.9-5.1 1.48-7.66 1.7-.13 0-.26.04-.4.05a31.61 31.61 0 0 0-1.09 3.52c.52.06 1.03.1 1.54.14 9.9.54 19.99-5.28 28.09-12.86 4.5-4.21 10.53-9.95 11.19-16.95.29-3.08-.86-5.45-2.55-7.47a22.79 22.79 0 0 0-2.9-3.04c.38.72.68 1.48.95 2.28.12.03.22.1.34.15l-.02-.04Z"/><path fill="#110E98" d="M446.17 189.32a1.9 1.9 0 0 1-.15-.55c1.23 1.1 1.51 1.42.83.94a3.79 3.79 0 0 0-.65-.38h-.01c.15.38.38.78.47 1.13a9 9 0 0 1 .27 2.33c-.01 1.6-.43 3.22-1.03 4.71-2.35 5.96-7.32 10.63-11.72 14.57-4.71 4.2-9.91 7.76-15.5 9.77-2.5.9-5.1 1.48-7.66 1.7-.13 0-.26.04-.4.05a31.61 31.61 0 0 0-1.09 3.52c.52.06 1.03.1 1.54.14 9.9.54 19.99-5.28 28.09-12.86 4.5-4.21 10.53-9.95 11.19-16.95.29-3.08-.86-5.45-2.55-7.47a22.79 22.79 0 0 0-2.9-3.04c.38.72.68 1.48.95 2.28.12.03.22.1.34.15l-.02-.04Z" opacity=".2"/><path fill="#FF9D0A" d="M395.02 217.88a22.84 22.84 0 0 1-3.15-7.79 24.73 24.73 0 0 1-.18-9.06c.07-.45-.95-1.34-1.18-1.6a85.53 85.53 0 0 0-1.43-1.29 22.16 22.16 0 0 0 2.87 16.64c.58.92 1.2 1.83 1.88 2.69.82.75 1.7 1.45 2.63 2.04a8.22 8.22 0 0 1-1.42-1.64l-.02.01Zm12.11 5.66c1.13.16 2.3.2 3.46.05l.01-.04c-1.17.08-2.31.07-3.47-.01Zm39.72-33.81c.68.48.4.17-.84-.94.03.17.1.36.16.54h.01c.23.1.45.25.65.4h.02Zm-36.23 33.83-.01.03.4-.06-.4.03Zm47.7 59.34c.03-1.6.6-3.18 1.29-4.61 1.45-2.96 3.62-5.38 5.6-7.89a48.15 48.15 0 0 0 5.62-8.5c1.86-3.83 2.79-8.18 2.08-12.08a19.23 19.23 0 0 0-4.14-5.99c.2.49.36 1 .5 1.52 1.78 7.2-2.65 14.64-6.85 20.08-3.07 3.97-9.7 10.51-7.28 16.04.97 1.01 2.1 1.8 3.33 2.34a2.92 2.92 0 0 1-.16-.9h.01Zm34.62 8.98.08.15.12.03c.7.24-.43-.94-.18-.2l-.02.02Z"/><path fill="#FF9D0A" d="M497.68 297.68a18.5 18.5 0 0 0-.79-1.57c-2.67-4.74-6.96-8.85-11.8-10.32-5.48-1.67-11.36-.7-17.1-.5-3.17.1-6.47.02-9.4-1.1a3 3 0 0 1 .12.73c0 .05 0 .1-.02.17.02-.05.02-.1.02-.17 0-.33-.26-.65-.57-.9-.21-.1-.42-.17-.62-.29-1.19-.64-.13-.34.62.29.1.03.2.09.29.12l.15.04-.1-.37a10.15 10.15 0 0 1-3.32-2.33c.14.33.31.66.53.98 1.68 2.52 4 4.94 6.71 5.88 3.05 1.06 6.4 1.15 9.64 1.02 6.35-.22 13.1-1.4 18.93 1.43.66.32 1.36.98 2.04 1.27-.04-.05-.05-.1-.08-.15-.25-.75.88.45.18.2l-.12-.04c.12.25.29.5.44.74a15.16 15.16 0 0 1 4.22 4.9l.03-.03Z"/><path fill="#110E98" d="M497.68 297.68a18.5 18.5 0 0 0-.79-1.57c-2.67-4.74-6.96-8.85-11.8-10.32-5.48-1.67-11.36-.7-17.1-.5-3.17.1-6.47.02-9.4-1.1a3 3 0 0 1 .12.73c0 .05 0 .1-.02.17.02-.05.02-.1.02-.17 0-.33-.26-.65-.57-.9-.21-.1-.42-.17-.62-.29-1.19-.64-.13-.34.62.29.1.03.2.09.29.12l.15.04-.1-.37a10.15 10.15 0 0 1-3.32-2.33c.14.33.31.66.53.98 1.68 2.52 4 4.94 6.71 5.88 3.05 1.06 6.4 1.15 9.64 1.02 6.35-.22 13.1-1.4 18.93 1.43.66.32 1.36.98 2.04 1.27-.04-.05-.05-.1-.08-.15-.25-.75.88.45.18.2l-.12-.04c.12.25.29.5.44.74a15.16 15.16 0 0 1 4.22 4.9l.03-.03Z" opacity=".2"/><path fill="#FF9D0A" d="M458.15 283.99c.3.26.55.56.57.9a3 3 0 0 0-.13-.74l-.15-.04c-.1-.03-.2-.08-.3-.13Zm48.02 62.44c-.1.06-2.77-4.25-3.47-3.8a5.2 5.2 0 0 1-5 .56l-.11-.03c.44 1.05.96 2.04 1.56 2.97.27.2.54.39.82.56a5.26 5.26 0 0 0 6.2-.24v-.02Z"/><path fill="#110E98" d="M506.17 346.43c-.1.06-2.77-4.25-3.47-3.8a5.2 5.2 0 0 1-5 .56l-.11-.03c.44 1.05.96 2.04 1.56 2.97.27.2.54.39.82.56a5.26 5.26 0 0 0 6.2-.24v-.02Z" opacity=".2"/><path fill="#FF9D0A" d="M497.4 343.05c.14.34.26.68.38 1.06-1.73-1.67-2.18-2.19-1.3-1.58.19.15.4.28.63.38l.29.14c-.4-1.03-.84-2.01-1.02-3.26-.23-1.72-.2-3.5-.06-5.26.58-7.35 2.76-14.55 3.34-21.9.42-5.19 0-10.53-1.98-14.97a15.14 15.14 0 0 0-4.22-4.9l.1.15a19.48 19.48 0 0 1 1.63 4.41c.78 3.12 1 6.48.8 9.82-.45 8.1-3.13 16.02-3.6 24.1-.18 3.16.13 6.45 1.61 9a20.08 20.08 0 0 0 5.14 5.85 19.9 19.9 0 0 1-1.56-2.97.98.98 0 0 1-.2-.1l.02.03Z"/><path fill="#FF9D0A" d="M496.47 342.55c-.87-.61-.43-.09 1.3 1.57-.11-.37-.24-.71-.38-1.06a.97.97 0 0 1-.29-.13c-.22-.1-.44-.24-.63-.38ZM409.66 235.4l-.45-.28c.14-.14.3.05.45.29l.26.18-.02-.08c-.08-.4-.33-.77-.44-1.16-.68-2.2-.54-4.66.03-7.15-1.38-.09-2.73-.3-4.06-.63-.05.76-.03 1.5.06 2.25.3 2.5 1.49 4.4 2.9 6.11.48.4.99.74 1.52 1.01-.07-.12-.16-.34-.27-.52l.02-.01Z"/><path fill="#FF9D0A" d="M472.9 249.82a12.37 12.37 0 0 0-1.7-4.44c-2.74-4.34-6.7-7.62-11.23-9.07-5.28-1.69-11.1-1.9-16.68-1.9-6.44.01-12.87.84-19.3 2.14-3.3.66-6.73 1.33-9.96.72-.55-.1-1.1-.24-1.61-.4a9.32 9.32 0 0 1-2.43-.88c0 .1-.02.06-.07-.04a8.81 8.81 0 0 1-1.53-1.01l.9 1.04c1.9 2.12 3.98 4.01 6.6 4.87 6.15 2.04 13.33-.91 19.7-1.78a84.34 84.34 0 0 1 21.1-.22c2.75.33 5.49.81 8.06 1.84 1.18.48 2.34 1.07 3.39 1.83l-.18-.3.38.38c.5.47.5.5.02.08l-.17-.14-.04-.01.25.44c.14.28.27.56.37.86 1.7 1.66 3.1 3.69 4.14 5.99Z"/><path fill="#110E98" d="M472.9 249.82a12.37 12.37 0 0 0-1.7-4.44c-2.74-4.34-6.7-7.62-11.23-9.07-5.28-1.69-11.1-1.9-16.68-1.9-6.44.01-12.87.84-19.3 2.14-3.3.66-6.73 1.33-9.96.72-.55-.1-1.1-.24-1.61-.4a9.32 9.32 0 0 1-2.43-.88c0 .1-.02.06-.07-.04a8.81 8.81 0 0 1-1.53-1.01l.9 1.04c1.9 2.12 3.98 4.01 6.6 4.87 6.15 2.04 13.33-.91 19.7-1.78a84.34 84.34 0 0 1 21.1-.22c2.75.33 5.49.81 8.06 1.84 1.18.48 2.34 1.07 3.39 1.83l-.18-.3.38.38c.5.47.5.5.02.08l-.17-.14-.04-.01.25.44c.14.28.27.56.37.86 1.7 1.66 3.1 3.69 4.14 5.99Z" opacity=".2"/><path fill="#FF9D0A" d="M409.92 235.95s.06.02.07.04l-.07-.4-.26-.18.27.52v.02Zm.07.04s-.06-.02-.07-.04c.06.1.08.15.07.04Zm58.39 6.69c.48.43.48.4-.03-.08l-.38-.38.18.3.04.02.17.14h.01Z"/><path fill="#FF9D0A" d="M412.42 236.86c-.5-.16-.99-.37-1.46-.6-.13-.07-.61-.39-1.04-.67.04.21.07.32.06.4.77.4 1.59.7 2.44.87Zm594.3 54.34s.01.14.03.2c-.02-.06-.02-.12-.03-.2Zm.98-1.21c-.16.1-.34.2-.53.27.63-.63 1.55-.9.53-.27Zm39.73-58.01c-.46.01-.92-.02-1.39-.06.46 0 .92 0 1.36-.05l.03.1v.01Zm.69 8.62-.39.28c.11-.24.25-.44.39-.28Zm2.26-12.59.04.13c-.35.04-.71.04-1.07.06.35-.04.7-.1 1.04-.17l-.01-.02Z"/><path fill="#FF9D0A" d="M1046.26 228c1.04.24 2.08.29 3.07.19.36 0 .72-.03 1.07-.07.25 1.02.44 2.04.56 3.07-1.16.39-2.36.6-3.55.7-.31-1.3-.7-2.6-1.15-3.89Z"/><path fill="#FF9D0A" d="M1046.25 227.97a101.15 101.15 0 0 0-3.9-9.3 98.95 98.95 0 0 0-10.6-17.84c-3.83-5.09-8.53-10.78-13.41-12.62a7.3 7.3 0 0 0-3.33-.5 5.8 5.8 0 0 0-1.66.42c-.07.02-.14.08-.21.1.18-.84.42-1.65.71-2.4a7.13 7.13 0 0 1 2.97-1.9c5.05-1.4 10.46 3.97 14.74 8.97a91.89 91.89 0 0 1 12.17 18.37 106.9 106.9 0 0 1 4.65 10.58 52.7 52.7 0 0 1 1.98 6.13c-.33.1-.69.13-1.04.17-1.01.03-2.05-.06-3.08-.22l.01.04Zm4.15.15a14.2 14.2 0 0 0 3.71-.8 11.38 11.38 0 0 0 4.53-2.75c.79-.6 1.54-1.28 2.23-2.04-2.42 3.96-5.61 7.11-9.31 8.48-.2.05-.39.13-.58.2a26.2 26.2 0 0 0-.56-3.07l-.02-.02Z"/><path fill="#110E98" d="M1050.4 228.12a14.2 14.2 0 0 0 3.71-.8 11.38 11.38 0 0 0 4.53-2.75c.79-.6 1.54-1.28 2.23-2.04-2.42 3.96-5.61 7.11-9.31 8.48-.2.05-.39.13-.58.2a26.2 26.2 0 0 0-.56-3.07l-.02-.02Z" opacity=".2"/><path fill="#FF9D0A" d="M1047.41 231.89c1.2-.1 2.39-.31 3.55-.7.01.14.04.27.04.38-1.16.27-2.36.4-3.58.41a.48.48 0 0 1-.02-.09h.01Zm-34.56-43.5c.07-.2.11-.38.11-.58-1.03 1.11-1.27 1.43-.69.95.18-.14.37-.27.56-.37h.01c-.12.4-.3.83-.36 1.2-.13.8-.17 1.64-.12 2.51.1 1.75.56 3.53 1.16 5.18 2.41 6.63 7.07 12.03 11.18 16.6 4.41 4.89 9.22 9.11 14.29 11.67a24.72 24.72 0 0 0 6.89 2.36l.37.1c.44 1.29.84 2.6 1.15 3.88-.46.03-.91.04-1.36.05-8.77-.1-18.04-7.1-25.64-15.87-4.21-4.88-9.88-11.52-10.83-19.16a11.1 11.1 0 0 1 1.87-7.93 19.69 19.69 0 0 1 2.41-3.1c-.29.76-.52 1.57-.71 2.4-.11.04-.2.1-.3.15l.01-.04Z"/><path fill="#110E98" d="M1012.85 188.39c.07-.2.11-.38.11-.58-1.03 1.11-1.27 1.43-.69.95.18-.14.37-.27.56-.37h.01c-.12.4-.3.83-.36 1.2-.13.8-.17 1.64-.12 2.51.1 1.75.56 3.53 1.16 5.18 2.41 6.63 7.07 12.03 11.18 16.6 4.41 4.89 9.22 9.11 14.29 11.67a24.72 24.72 0 0 0 6.89 2.36l.37.1c.44 1.29.84 2.6 1.15 3.88-.46.03-.91.04-1.36.05-8.77-.1-18.04-7.1-25.64-15.87-4.21-4.88-9.88-11.52-10.83-19.16a11.1 11.1 0 0 1 1.87-7.93 19.69 19.69 0 0 1 2.41-3.1c-.29.76-.52 1.57-.71 2.4-.11.04-.2.1-.3.15l.01-.04Z" opacity=".2"/><path fill="#FF9D0A" d="M1059.81 222.88a25.3 25.3 0 0 0 2.4-8.24c.39-3.13.28-6.45-.32-9.82-.09-.48.78-1.38.97-1.64.09-.13 1.2-1.3 1.2-1.3 1.52 6.65.68 13-1.68 17.85-.47.96-.97 1.9-1.53 2.78-.69.77-1.43 1.47-2.23 2.04.45-.48.85-1.04 1.18-1.68l.01.01Zm-10.47 5.3a9.4 9.4 0 0 1-3.07-.18l-.01-.04c1.04.16 2.06.23 3.08.22Zm-37.06-39.4c-.58.48-.34.16.69-.96-.01.18-.05.4-.11.58h-.01c-.19.1-.39.23-.55.38h-.02Zm33.97 39.19.01.03a2.81 2.81 0 0 1-.36-.1l.35.07Zm-39.29 61.11a15.7 15.7 0 0 0-1.39-5.1c-1.44-3.32-3.5-6.09-5.38-8.94a62.5 62.5 0 0 1-5.45-9.61c-1.85-4.28-2.9-9.06-2.48-13.25a18.29 18.29 0 0 1 3.36-6.2 15.3 15.3 0 0 0-.35 1.6c-1.21 7.7 3.1 16.07 7.13 22.26 2.93 4.5 9.18 12.07 7.31 17.9a7.85 7.85 0 0 1-2.83 2.3c.06-.33.12-.68.09-.97h-.01Zm-30.3 7.35-.06.16c-.04 0-.08.02-.11.03-.62.2.33-1 .15-.2l.02.01Z"/><path fill="#FF9D0A" d="M972.75 302.4c.18-.56.39-1.11.62-1.65 2.12-4.95 5.72-9.12 9.94-10.38 4.79-1.44 10.07.02 15.17.62 2.83.33 5.76.48 8.31-.55-.05.29-.09.56-.08.79l.03.19a3.36 3.36 0 0 1-.03-.2c0-.34.2-.68.47-.93.18-.09.36-.16.53-.27 1.02-.61.1-.35-.53.27-.1.03-.17.09-.26.11l-.13.04.07-.4a7.69 7.69 0 0 0 2.83-2.3c-.11.35-.24.7-.42 1.03-1.36 2.62-3.3 5.09-5.66 5.92-2.65.94-5.62.8-8.5.45-5.67-.68-11.73-2.43-16.76.25-.57.3-1.16.97-1.74 1.23l.06-.15c.18-.8-.76.43-.15.2l.1-.03c-.1.26-.23.52-.35.77a13.4 13.4 0 0 0-3.5 5.02l-.02-.03Z"/><path fill="#110E98" d="M972.75 302.4c.18-.56.39-1.11.62-1.65 2.12-4.95 5.72-9.12 9.94-10.38 4.79-1.44 10.07.02 15.17.62 2.83.33 5.76.48 8.31-.55-.05.29-.09.56-.08.79l.03.19a3.36 3.36 0 0 1-.03-.2c0-.34.2-.68.47-.93.18-.09.36-.16.53-.27 1.02-.61.1-.35-.53.27-.1.03-.17.09-.26.11l-.13.04.07-.4a7.69 7.69 0 0 0 2.83-2.3c-.11.35-.24.7-.42 1.03-1.36 2.62-3.3 5.09-5.66 5.92-2.65.94-5.62.8-8.5.45-5.67-.68-11.73-2.43-16.76.25-.57.3-1.16.97-1.74 1.23l.06-.15c.18-.8-.76.43-.15.2l.1-.03c-.1.26-.23.52-.35.77a13.4 13.4 0 0 0-3.5 5.02l-.02-.03Z" opacity=".2"/><path fill="#FF9D0A" d="M1007.17 290.26c-.26.27-.46.58-.47.93-.01-.23.03-.5.08-.79l.13-.03.26-.11Zm-39.42 64.44c.09.08 2.24-4.42 2.88-3.89.9.75 1.8 1.19 2.76 1.26a3.62 3.62 0 0 0 1.82-.33 19.4 19.4 0 0 1-1.24 3.11c-.22.2-.46.39-.7.55-1.63 1.15-3.66 1.13-5.53-.67l.01-.03Z"/><path fill="#110E98" d="M967.75 354.7c.09.08 2.24-4.42 2.88-3.89.9.75 1.8 1.19 2.76 1.26a3.62 3.62 0 0 0 1.82-.33 19.4 19.4 0 0 1-1.24 3.11c-.22.2-.46.39-.7.55-1.63 1.15-3.66 1.13-5.53-.67l.01-.03Z" opacity=".2"/><path fill="#FF9D0A" d="M975.37 351.63c-.1.37-.2.73-.28 1.12 1.44-1.68 1.81-2.21 1.07-1.62-.16.15-.35.28-.54.37-.08.05-.17.1-.25.13.3-1.09.64-2.12.73-3.47.12-1.84 0-3.77-.22-5.7-.9-8-3.21-15.97-4.11-23.98-.65-5.66-.56-11.42.97-16.1a13.38 13.38 0 0 1 3.5-5.02c-.03.04-.05.1-.07.15-.57 1.42-.97 3-1.23 4.67a42.62 42.62 0 0 0-.2 10.6c.83 8.81 3.62 17.59 4.46 26.38.33 3.45.23 7-.96 9.66a17.62 17.62 0 0 1-4.26 6c.48-.97.88-2.02 1.23-3.12a.63.63 0 0 0 .17-.09l-.01.02Z"/><path fill="#FF9D0A" d="M976.17 351.15c.74-.6.37-.06-1.08 1.62.09-.4.18-.76.29-1.12a.72.72 0 0 0 .25-.13c.19-.1.37-.22.54-.37Zm71.55-110.26.38-.29c-.13-.16-.27.04-.38.29l-.22.18c-.01-.02 0-.06.01-.08.05-.43.25-.82.33-1.24.49-2.34.23-5.02-.4-7.75 1.22 0 2.41-.14 3.58-.41.07.82.1 1.62.06 2.44a12.35 12.35 0 0 1-2.25 6.43c-.41.39-.85.73-1.3 1 .05-.14.11-.37.21-.56l-.02-.01Z"/><path fill="#FF9D0A" d="M992.26 252.18c.17-1.7.58-3.29 1.28-4.7 2.21-4.51 5.56-7.8 9.51-9.07 4.61-1.46 9.77-1.29 14.73-.9a76.99 76.99 0 0 1 17.27 3.63c2.96.95 6.04 1.91 8.89 1.47.48-.07.95-.19 1.41-.33.74-.13 1.44-.4 2.11-.79-.01.12.02.07.05-.03a6.6 6.6 0 0 0 1.31-1c-.24.36-.49.73-.74 1.07-1.58 2.18-3.33 4.08-5.61 4.84-5.36 1.79-11.9-1.91-17.61-3.29a62.6 62.6 0 0 0-18.76-1.68c-2.43.16-4.84.5-7.07 1.44-1.03.44-2.02 1-2.91 1.76.04-.11.1-.2.14-.32l-.32.38c-.43.48-.43.52-.02.09.06-.04.1-.09.15-.14l.03-.01-.19.47c-.11.28-.21.59-.3.9a18.46 18.46 0 0 0-3.35 6.21Z"/><path fill="#110E98" d="M992.26 252.18c.17-1.7.58-3.29 1.28-4.7 2.21-4.51 5.56-7.8 9.51-9.07 4.61-1.46 9.77-1.29 14.73-.9a76.99 76.99 0 0 1 17.27 3.63c2.96.95 6.04 1.91 8.89 1.47.48-.07.95-.19 1.41-.33.74-.13 1.44-.4 2.11-.79-.01.12.02.07.05-.03a6.6 6.6 0 0 0 1.31-1c-.24.36-.49.73-.74 1.07-1.58 2.18-3.33 4.08-5.61 4.84-5.36 1.79-11.9-1.91-17.61-3.29a62.6 62.6 0 0 0-18.76-1.68c-2.43.16-4.84.5-7.07 1.44-1.03.44-2.02 1-2.91 1.76.04-.11.1-.2.14-.32l-.32.38c-.43.48-.43.52-.02.09.06-.04.1-.09.15-.14l.03-.01-.19.47c-.11.28-.21.59-.3.9a18.46 18.46 0 0 0-3.35 6.21Z" opacity=".2"/><path fill="#FF9D0A" d="M1047.51 241.46s-.04.01-.05.03l.04-.42.22-.18c-.09.2-.17.42-.21.55v.02Z"/><path fill="#FF9D0A" d="M1047.46 241.5s.05-.02.05-.04c-.04.1-.06.15-.05.03Zm-51.54 3.25c-.41.43-.41.39.01-.08l.32-.39c-.05.1-.1.2-.14.32h-.04l-.14.15h-.01Zm49.43-2.47c.42-.14.85-.34 1.26-.55l.89-.66c-.03.22-.05.34-.04.42a6.5 6.5 0 0 1-2.11.79Zm-87.23-74.26c.1-.26-.56-1.06-.21-.27.13.13.22.24.21.27Z"/><path fill="#FF9D0A" d="M947.66 160.47c.48.68 1.12 1.88 1.89 2.27 1.7.89 3.5 1.48 5.14 2.53.41.25.83.53 1.22.83a20.6 20.6 0 0 1 3.14 2.2 32.9 32.9 0 0 0-5.5-6.3c-1.72-1.47-4.7-3.75-7.09-3.54-.07 0 1.15 1.96 1.2 2.01Z"/><path fill="#000" d="M947.66 160.47c.48.68 1.12 1.88 1.89 2.27 1.7.89 3.5 1.48 5.14 2.53.41.25.83.53 1.22.83a20.6 20.6 0 0 1 3.14 2.2 32.9 32.9 0 0 0-5.5-6.3c-1.72-1.47-4.7-3.75-7.09-3.54-.07 0 1.15 1.96 1.2 2.01Z" opacity=".2"/><path fill="#FF9D0A" d="M957.08 167.02s.54.45.83.73c-.35-.8.3 0 .21.27.01-.03-.07-.14-.21-.27.04.11.11.25.2.4 1.76 3.47 2.2 7.38 1.92 11.22-.05.7 1.04 1.83 1.41 2.34.18.23 1.84 1.92 1.82 2.06 1.11-5.37-.84-10.55-3.87-14.93l-.37-.55a19.58 19.58 0 0 0-3.14-2.2c.41.3.8.6 1.18.93h.02Zm-20.03 168.8-.52-.36h-.02c-.54-.18-.37-.08.54.36Zm10.5 2.28-.18-.2c-.31-.24-.27-.17.18.2Z"/><path fill="#FF9D0A" d="M935.1 334.2a12.42 12.42 0 0 1-3.54-7.93c-.09-1.04-.07-2.09.08-3.13.15-1.17.11-2.18.15-3.33.02-.34-2.83-1.69-3.02-1.5-.47.5-.86.68-1.18 1.3-.22.4-.32.86-.4 1.32a12.55 12.55 0 0 0 1.31 8.4c1.85 3.35 5.08 5.34 8.45 6.94a15.58 15.58 0 0 1-1.6-1.83c-.06-.1-.16-.16-.25-.26v.01Zm12.45 3.9.19.23h.04a42.2 42.2 0 0 1-.2-.23v-.02l-.03.02Z"/><path fill="#FF9D0A" d="M952.23 340.52a14.3 14.3 0 0 0-6.02-3.8c.41.36.8.76 1.17 1.18.04.05.12.1.2.16.44.25.5.34.2.32l.15.18a9.52 9.52 0 0 1 2.1 4.37c.56 2.46.4 4.98.44 7.48 0 .72 3.88 1.76 3.85 1.9.66-3.94.69-8.54-2.1-11.75l.01-.04Z"/><path fill="#FF9D0A" d="M952.23 340.52a14.3 14.3 0 0 0-6.02-3.8c.41.36.8.76 1.17 1.18.04.05.12.1.2.16.44.25.5.34.2.32l.15.18a9.52 9.52 0 0 1 2.1 4.37c.56 2.46.4 4.98.44 7.48 0 .72 3.88 1.76 3.85 1.9.66-3.94.69-8.54-2.1-11.75l.01-.04Z"/><path fill="#FF9D0A" d="M947.55 338.04a2.84 2.84 0 0 0-.2-.16l.19.21v.01l.2.24c.32.04.25-.07-.2-.32l.01.02Z"/><path fill="#FF9D0A" d="M947.37 337.9c-.36-.43-.75-.81-1.17-1.19-1.18-.4-2.37-.66-3.46-.72-1.06-.07-2.14 0-3.2-.06-.95-.04-2.1-.55-3-.5.16.13.35.25.51.37-.92-.43-1.1-.56-.54-.36h.02l-.02-.03c-.4-.32-.78-.64-1.15-1 .5.66 1.05 1.29 1.64 1.86a20.5 20.5 0 0 0 5.05 1.78c.95.17 1.88.2 2.83.18.62 0 1.24-.03 1.87-.03l.61.02c.16.03.29.06.38.06l-.19-.22c-.43-.39-.49-.45-.18-.21v.04Z"/><path fill="#000" d="M947.37 337.9c-.36-.43-.75-.81-1.17-1.19-1.18-.4-2.37-.66-3.46-.72-1.06-.07-2.14 0-3.2-.06-.95-.04-2.1-.55-3-.5.16.13.35.25.51.37-.92-.43-1.1-.56-.54-.36h.02l-.02-.03c-.4-.32-.78-.64-1.15-1 .5.66 1.05 1.29 1.64 1.86a20.5 20.5 0 0 0 5.05 1.78c.95.17 1.88.2 2.83.18.62 0 1.24-.03 1.87-.03l.61.02c.16.03.29.06.38.06l-.19-.22c-.43-.39-.49-.45-.18-.21v.04Z" opacity=".2"/><path fill="#FF9D0A" d="M484.37 176.04s-.06 0-.07-.1c0 .02.05.06.07.1Z"/><path fill="#FF9D0A" d="M503.85 151.03a53.85 53.85 0 0 0-16.3 10.28c-2.12 1.97-4.59 4.18-6.04 6.72-1.45 2.54-.39 4.43 1.13 6.6.56.81 1.16 1.64 1.81 2.38 0-.25-.02-.48-.03-.72.01-.73.13-1.47.34-2.16-.08 0-.16 0-.23-.03h-.06c.14-.53.43-1.04.72-1.51 2.32-3.8 6.05-7.16 9.46-9.95 3.64-3 7.67-5.73 11.87-7.85.04 0-2.16-3.97-2.69-3.73l.02-.03Zm-19.48 24.99s-.06 0-.07-.1c0 .02.05.06.07.1Zm36.43-1.84h-.05l.08-.13c0 .05-.02.11-.04.15v-.02Z"/><path fill="#FF9D0A" d="m521.65 172.3-.1.24-.16.45c-.17.36-.37.72-.56 1.06l-.08.13c-.92-.19-1.87-.25-2.82-.22-3.42.09-6.93.87-10.3 1.47-3.41.61-6.82 1.3-10.2 2.1-3.04.72-6.76 2.34-9.88 1.5a6.24 6.24 0 0 1-3.05-2l-.04-.73c.01-.73.13-1.46.35-2.15 1.71.19 3.52-.41 5.15-.82 4.5-1.13 9-2.13 13.57-2.95 3.89-.72 8.2-1.85 12.17-1.53 2.76.23 4.4 1.51 5.95 3.44Z"/><path fill="#000" d="m521.65 172.3-.1.24-.16.45c-.17.36-.37.72-.56 1.06l-.08.13c-.92-.19-1.87-.25-2.82-.22-3.42.09-6.93.87-10.3 1.47-3.41.61-6.82 1.3-10.2 2.1-3.04.72-6.76 2.34-9.88 1.5a6.24 6.24 0 0 1-3.05-2l-.04-.73c.01-.73.13-1.46.35-2.15 1.71.19 3.52-.41 5.15-.82 4.5-1.13 9-2.13 13.57-2.95 3.89-.72 8.2-1.85 12.17-1.53 2.76.23 4.4 1.51 5.95 3.44Z" opacity=".2"/><path fill="#FF9D0A" d="M522.02 181.95c-3.56 2.97-7.99 5.22-11.9 7.73-4.13 2.64-8.22 5.34-12.33 8.02-1.57 1-4.5 2.57-5.95 4.57h.12a4.3 4.3 0 0 0-.05 4.35 10.1 10.1 0 0 1-2.37-2.56c-1.4-1.96-2.92-3.82-1.53-6.18 1.38-2.32 4.06-3.6 6.26-5.02 6.47-4.12 12.92-8.23 19.34-12.4 2.29-1.5 6.23-3.32 7.12-6.24 0-.04.02-.1.04-.14.21-.34.4-.69.56-1.07l.16-.44.1-.25c.3.38.62.8.93 1.24.87 1.23 2.01 2.7 1.98 4.26-.03 1.71-1.28 3.1-2.52 4.13h.04Zm6.16 24.19c-3.49 4.44-9.18 8.25-14.38 10.34-.61.25-3.5-4.63-3.38-4.7 3.15-1.85 6.26-3.67 9.07-6a44.82 44.82 0 0 0 4-3.72c.66-.7 1.34-1.4 1.76-2.26.12-.26.2-.47.25-.66a4.4 4.4 0 0 1 1.56.52c.56.39.81.48.77.32.25.13.5.3.72.46 1.18 2.03 1.1 3.8-.39 5.7h.02Z"/><path fill="#FF9D0A" d="M528.58 200.44a7.35 7.35 0 0 0-3.06-1.32h-.03a7.92 7.92 0 0 0-2.2-.02c-1.85.2-3.64.87-5.4 1.4l-11.3 3.46c-3.6 1.1-7.3 2.62-11.03 3.26a4.5 4.5 0 0 1-3.61-.65 4.32 4.32 0 0 1 .06-4.35c2-.32 4.15-1.3 5.69-1.8 3.19-.99 6.35-1.94 9.54-2.91 3.25-1 6.5-2.06 9.77-3 2.26-.64 4.77-1.07 6.9.25 1.99 1.25 3.51 3.7 4.67 5.66v.02Z"/><path fill="#000" d="M528.58 200.44a7.35 7.35 0 0 0-3.06-1.32h-.03a7.92 7.92 0 0 0-2.2-.02c-1.85.2-3.64.87-5.4 1.4l-11.3 3.46c-3.6 1.1-7.3 2.62-11.03 3.26a4.5 4.5 0 0 1-3.61-.65 4.32 4.32 0 0 1 .06-4.35c2-.32 4.15-1.3 5.69-1.8 3.19-.99 6.35-1.94 9.54-2.91 3.25-1 6.5-2.06 9.77-3 2.26-.64 4.77-1.07 6.9.25 1.99 1.25 3.51 3.7 4.67 5.66v.02Z" opacity=".2"/><path fill="#FF9D0A" d="M526.23 199.3a4.4 4.4 0 0 0 0 .02v-.02Zm.85.36a4.37 4.37 0 0 0-.85-.36 6.9 6.9 0 0 1 1.62.67c.02.17-.2.08-.77-.31Zm489.78 125.62s-.03.01-.05-.06l.05.06Z"/><path fill="#FF9D0A" d="M1020.8 305.3a25.71 25.71 0 0 0-5.45 9.14c-.58 1.63-1.27 3.48-1.43 5.45-.15 1.97.72 3.2 1.86 4.59.42.5.87 1.03 1.32 1.48l-.16-.5a7.9 7.9 0 0 1-.28-1.58c-.04 0-.08.02-.11 0h-.03c-.04-.38-.01-.78.03-1.15.29-2.97 1.34-5.77 2.35-8.14a32.04 32.04 0 0 1 3.9-6.91c.01 0-1.8-2.58-2-2.36v-.02Zm-3.94 19.97s-.03 0-.05-.07c0 .02.03.04.05.07Zm16.46-5.35h-.02l.01-.1a.4.4 0 0 1 .01.11v-.01Z"/><path fill="#FF9D0A" d="m1033.33 318.48.01.19.01.33-.04.82-.01.1c-.47-.03-.92.03-1.36.15-1.55.45-3.02 1.4-4.45 2.2a59.36 59.36 0 0 0-4.29 2.63c-1.26.85-2.65 2.42-4.26 2.17a3.46 3.46 0 0 1-1.82-1.1l-.16-.51a8.68 8.68 0 0 1-.28-1.58c.84-.05 1.55-.68 2.22-1.15a64.83 64.83 0 0 1 5.67-3.6c1.65-.95 3.41-2.23 5.31-2.44 1.33-.15 2.34.58 3.45 1.79Z"/><path fill="#000" d="m1033.33 318.48.01.19.01.33-.04.82-.01.1c-.47-.03-.92.03-1.36.15-1.55.45-3.02 1.4-4.45 2.2a59.36 59.36 0 0 0-4.29 2.63c-1.26.85-2.65 2.42-4.26 2.17a3.46 3.46 0 0 1-1.82-1.1l-.16-.51a8.68 8.68 0 0 1-.28-1.58c.84-.05 1.55-.68 2.22-1.15a64.83 64.83 0 0 1 5.67-3.6c1.65-.95 3.41-2.23 5.31-2.44 1.33-.15 2.34.58 3.45 1.79Z" opacity=".2"/><path fill="#FF9D0A" d="M1035.45 325.32c-1.04 2.5-2.63 4.6-3.93 6.82-1.38 2.34-2.72 4.72-4.08 7.09-.51.89-1.55 2.33-1.82 3.91l.06-.01a4.73 4.73 0 0 0 .85 3.1 7.76 7.76 0 0 1-1.61-1.56c-1.04-1.24-2.12-2.4-1.95-4.23.16-1.8 1.14-3.02 1.87-4.27 2.16-3.65 4.3-7.3 6.42-10.99.76-1.32 2.21-3.05 2.04-5.22a.4.4 0 0 1-.02-.11c.03-.27.05-.54.04-.82l-.01-.34-.01-.19c.22.24.45.5.69.79.65.78 1.47 1.7 1.77 2.81a4.84 4.84 0 0 1-.33 3.22h.02Zm7.75 16.55a18.92 18.92 0 0 1-4.56 8.96c-.23.25-2.55-2.91-2.51-2.97 1.08-1.67 2.15-3.31 2.98-5.29.41-.98.79-2 1.1-3.09.16-.56.33-1.15.35-1.8l-.02-.5c.11 0 .24 0 .36.03.16.04.31.1.47.16.33.22.47.26.41.15.15.06.3.16.43.25a4.9 4.9 0 0 1 .98 4.1h.01Z"/><path fill="#FF9D0A" d="M1042.23 337.76a3 3 0 0 0-.44-.25 3.06 3.06 0 0 0-1.25-.35h-.01c-.36 0-.7.1-1.02.23-.81.36-1.5 1.03-2.21 1.6a636.41 636.41 0 0 0-4.52 3.72c-1.44 1.18-2.84 2.68-4.43 3.55-.67.37-1.25.3-1.81-.06a4.7 4.7 0 0 1-.85-3.1c.86-.46 1.65-1.4 2.27-1.92 1.27-1.06 2.54-2.1 3.81-3.14 1.3-1.07 2.59-2.19 3.91-3.22.92-.7 1.99-1.29 3.24-.58 1.17.66 2.37 2.24 3.3 3.51l.01.01Z"/><path fill="#000" d="M1042.23 337.76a3 3 0 0 0-.44-.25 3.06 3.06 0 0 0-1.25-.35h-.01c-.36 0-.7.1-1.02.23-.81.36-1.5 1.03-2.21 1.6a636.41 636.41 0 0 0-4.52 3.72c-1.44 1.18-2.84 2.68-4.43 3.55-.67.37-1.25.3-1.81-.06a4.7 4.7 0 0 1-.85-3.1c.86-.46 1.65-1.4 2.27-1.92 1.27-1.06 2.54-2.1 3.81-3.14 1.3-1.07 2.59-2.19 3.91-3.22.92-.7 1.99-1.29 3.24-.58 1.17.66 2.37 2.24 3.3 3.51l.01.01Z" opacity=".2"/><path fill="#FF9D0A" d="M1040.91 337.2a1.55 1.55 0 0 0-.36-.02c.12 0 .24.02.37.04l-.01-.01Z"/><path fill="#FF9D0A" d="M1041.38 337.37a1.9 1.9 0 0 0-.47-.16c.3.05.6.15.88.3.05.12-.08.08-.41-.14ZM552.43 202.76s0-.05.05-.09c0 .03-.02.07-.05.1Z"/><path fill="#FF9D0A" d="M570.24 210.04c-2.28-4.08-4.96-7.34-8.32-9.75-1.47-1.04-3.13-2.3-4.88-2.6-1.75-.32-2.77 1.2-3.96 3.2-.43.74-.87 1.5-1.26 2.32.15-.11.3-.19.44-.27.45-.24.93-.4 1.38-.48v-.26c.35-.06.7 0 1 .08 2.63.57 5.16 2.46 7.3 4.27a35.63 35.63 0 0 1 6.28 6.95c.02 0 2.2-3.12 2-3.47h.01Zm-17.8-7.28s0-.05.04-.09c0 .03-.02.07-.05.1Zm5.49 29.01.02-.05.08.03c-.01 0-.06 0-.1.02Z"/><path fill="#FF9D0A" d="m559.22 231.83-.17.02a3.67 3.67 0 0 1-1.1-.11c.01-.82-.08-1.6-.21-2.36-.46-2.75-1.38-5.33-2.15-7.88-.79-2.58-1.62-5.1-2.51-7.59-.8-2.22-2.26-4.69-2.12-7.53a8.4 8.4 0 0 1 .86-3.17c.15-.11.3-.19.44-.27.45-.24.93-.4 1.38-.48.08 1.46.67 2.73 1.12 3.92 1.24 3.26 2.4 6.58 3.45 10.01.9 2.93 2.13 6.03 2.41 9.4.2 2.33-.4 4.11-1.42 6.04h.02Z"/><path fill="#000" d="m559.22 231.83-.17.02a3.67 3.67 0 0 1-1.1-.11c.01-.82-.08-1.6-.21-2.36-.46-2.75-1.38-5.33-2.15-7.88-.79-2.58-1.62-5.1-2.51-7.59-.8-2.22-2.26-4.69-2.12-7.53a8.4 8.4 0 0 1 .86-3.17c.15-.11.3-.19.44-.27.45-.24.93-.4 1.38-.48.08 1.46.67 2.73 1.12 3.92 1.24 3.26 2.4 6.58 3.45 10.01.9 2.93 2.13 6.03 2.41 9.4.2 2.33-.4 4.11-1.42 6.04h.02Z" opacity=".2"/><path fill="#FF9D0A" d="M553.28 235.44c-2.26-1.88-4.2-4.69-6.21-7.03-2.12-2.46-4.29-4.85-6.45-7.3-.81-.92-2.13-2.77-3.54-3.27l.02.09c-.7-.18-1.52.14-2.18.8-.18.2-.36.4-.51.64.27-.9.73-1.79 1.3-2.8 1.04-1.8 2.02-3.7 3.64-3.36 1.6.33 2.73 2.07 3.86 3.38 3.31 3.85 6.65 7.68 10 11.48 1.19 1.34 2.8 3.94 4.7 3.66.02 0 .06 0 .1-.02.23.08.47.08.72.1.1 0 .2-.02.3-.01.05.01.12-.02.17-.02l-.65 1.18c-.66 1.14-1.44 2.57-2.41 3.07-1.07.56-2.08.04-2.87-.62v.03Zm-14.24 13.34c-3.17-1.32-6.22-4.63-8.11-8.16-.23-.41 2.44-4.44 2.51-4.36 1.53 1.92 3.03 3.82 4.8 5.33.9.74 1.81 1.42 2.78 2 .5.3 1.03.6 1.6.67.16 0 .31 0 .43-.04v.62c-.02.28-.08.55-.13.82-.18.6-.2.82-.1.72-.07.27-.11.51-.2.77-1.1 1.66-2.23 2.2-3.57 1.64h-.01Z"/><path fill="#FF9D0A" d="M542.6 247.14a8.81 8.81 0 0 0 .42-2.3 8.11 8.11 0 0 0-.25-2.45c-.33-1.45-.95-2.67-1.51-3.9l-3.5-8.02c-1.11-2.56-2.49-5.06-3.33-7.87a5.44 5.44 0 0 1-.04-3.16c.15-.24.33-.44.5-.64.67-.66 1.5-.98 2.19-.8.44 1.53 1.31 2.94 1.8 4.01l2.96 6.78c1 2.32 2.06 4.57 3.02 6.92.67 1.63 1.23 3.54.67 5.7-.52 2.03-1.87 4.13-2.95 5.75l.03-.02Z"/><path fill="#000" d="M542.6 247.14a8.81 8.81 0 0 0 .42-2.3 8.11 8.11 0 0 0-.25-2.45c-.33-1.45-.95-2.67-1.51-3.9l-3.5-8.02c-1.11-2.56-2.49-5.06-3.33-7.87a5.44 5.44 0 0 1-.04-3.16c.15-.24.33-.44.5-.64.67-.66 1.5-.98 2.19-.8.44 1.53 1.31 2.94 1.8 4.01l2.96 6.78c1 2.32 2.06 4.57 3.02 6.92.67 1.63 1.23 3.54.67 5.7-.52 2.03-1.87 4.13-2.95 5.75l.03-.02Z" opacity=".2"/><path fill="#FF9D0A" d="M543.03 244.84a5.42 5.42 0 0 0 0 .02v-.02Zm-.11.82.13-.82a9 9 0 0 1-.22 1.54c-.11.1-.07-.15.09-.72Zm540.03 28.84a50.3 50.3 0 0 0 2.2 4.1c1.47 2.48 2.72 4.58 2.58 7.57-.27 5.65-4.38 10.17-7.41 14.6-.39.56 2.07 3.61 1.99 3.7 3.7-3.51 7.15-8.38 7.69-13.59.28-2.7-.51-5.26-1.65-7.68l-.8-1.3-4.6-7.4Z"/><path fill="#000" d="M1082.95 274.5a50.3 50.3 0 0 0 2.2 4.1c1.47 2.48 2.72 4.58 2.58 7.57-.27 5.65-4.38 10.17-7.41 14.6-.39.56 2.07 3.61 1.99 3.7 3.7-3.51 7.15-8.38 7.69-13.59.28-2.7-.51-5.26-1.65-7.68l-.8-1.3-4.6-7.4Z" opacity=".2"/><path fill="#FF9D0A" d="M1086.43 262.38c3.11-5.34 8.18-8.94 12.47-13.24.28-.28-1.56-3.16-1.67-3.1-8.76 4.8-18.7 14.6-15.35 25.64.29.97.68 1.92 1.11 2.83l4.59 7.4c.27.43.55.86.8 1.29-.96-2.01-2.2-3.95-3.31-5.78-2.76-4.51-1.09-10.77 1.39-15.03l-.03-.01ZM385.1 276.67c-.33 1.51-.8 3.01-1.27 4.46-.9 2.75-1.66 5.07-.88 7.96 1.48 5.45 6.47 8.98 10.38 12.67.5.46-1.25 3.96-1.15 4.03-4.37-2.63-8.8-6.64-10.43-11.61-.86-2.58-.64-5.24-.04-7.86l.5-1.44 2.9-8.2Z"/><path fill="#000" d="M385.1 276.67c-.33 1.51-.8 3.01-1.27 4.46-.9 2.75-1.66 5.07-.88 7.96 1.48 5.45 6.47 8.98 10.38 12.67.5.46-1.25 3.96-1.15 4.03-4.37-2.63-8.8-6.64-10.43-11.61-.86-2.58-.64-5.24-.04-7.86l.5-1.44 2.9-8.2Z" opacity=".2"/><path fill="#FF9D0A" d="M379.1 265.58c-4.2-4.55-9.92-6.98-15.03-10.25-.33-.21.84-3.42.97-3.38 9.58 2.8 21.4 10.23 20.5 21.73-.07 1-.25 2.02-.47 3l-2.9 8.2-.5 1.45c.5-2.18 1.3-4.33 1.99-6.36 1.72-5-1.25-10.75-4.59-14.37l.03-.02Z"/><g fill="#FF406E" clip-path="url(#g)"><path d="m1020.45 31.67 11.21-15.28a.54.54 0 0 1 .74-.16c.25.16.31.48.16.73a.19.19 0 0 0-.04.06l-12.07 14.66v-.01Zm0 5.16 23.06 1.96c.29.03.51.29.48.59a.53.53 0 0 1-.58.49h-.03l-22.93-3.04Zm-1.6 4.82 10.61 16.22a.54.54 0 1 1-.9.59l-9.72-16.8h.01Zm-4.28 0-5.36 20.95a.53.53 0 1 1-1.03-.27l6.39-20.68Zm-3.93-2.32-15.93 11.02a.53.53 0 1 1-.6-.88l16.53-10.14Zm0-5.53-16.41-5.76a.54.54 0 0 1-.33-.68.54.54 0 0 1 .67-.36h.04l16.03 6.79Zm3.93-3.13-3.45-16.25a.56.56 0 0 1 .42-.65c.29-.07.58.13.65.42v.04l2.38 16.44Zm2.81 2.09.94-8.66c.03-.3.3-.51.59-.48.3.04.51.3.48.6v.06l-2.01 8.48Zm2.35 2.28 6.43-1.78c.28-.08.58.1.66.38a.54.54 0 0 1-.38.67h-.09l-6.62.74Zm-.88 3.04 6.87 3.1c.27.12.39.44.26.7a.53.53 0 0 1-.71.27c-.02 0-.05-.02-.06-.04l-6.36-4.03Zm-1.97 1.79 1.51 8.37c.06.3-.13.57-.42.63a.54.54 0 0 1-.63-.43v-.06l-.45-8.5-.01-.01Zm-2.73-1.29-5.01 6.76a.54.54 0 0 1-.75.11.54.54 0 0 1-.12-.75l.04-.06 5.83-6.06h.01Zm-1.41-2.78-7.37 1.56a.55.55 0 1 1-.22-1.08h.07l7.52-.47Zm1.41-2.56-5.36-6.08a.54.54 0 0 1 .22-.73c.18-.1.4-.08.57.04l.04.06 4.52 6.71h.01Zm18.96-3.21 5.82-1.8c.13-.05.27.02.32.16v.02c.05.13-.03.28-.17.33h-.01l-5.97 1.3h.01Zm-2.14 15.82 5.22 2.99c.13.07.17.24.1.36-.07.13-.24.17-.37.1l-4.95-3.45Zm-12.86 9.65v4.94a.26.26 0 0 1-.53 0v-.04l.54-4.9h-.01Zm-12.82-3.85-3.89 5a.28.28 0 0 1-.38.07.27.27 0 0 1-.07-.37l.02-.03 4.31-4.67h.01ZM998.7 38.4l-6.42.2c-.15 0-.27 0-.28-.16 0-.17.1-.18.26-.18l6.44.13Zm5.34-17.29-4.08-4.52a.27.27 0 0 1 0-.38c.11-.1.27-.1.38 0l3.7 4.9Zm16.41-4.4 1.45-5.5a.27.27 0 0 1 .33-.2c.15.03.23.19.2.33l-1.98 5.37Zm-4.64 14.72-.53-6.03a.26.26 0 0 1 .24-.3c.15 0 .28.1.29.25v6.08Zm3.54-.38 1.7-4.33a.28.28 0 0 1 .35-.16c.14.05.21.21.16.35v.03l-2.21 4.11Zm1.17 2.42 4.01-2.04a.25.25 0 0 1 .35.1v.01c.07.13.02.3-.11.36h-.04l-4.22 1.57h.01Zm.59 4.4 3.58.44c.15.02.25.16.23.3a.26.26 0 0 1-.3.24h-.04l-3.48-.98h.01Zm-2.26 1.46 2.64 2.27c.11.1.13.26.03.38-.11.11-.27.13-.38.02l-2.3-2.67h.01Zm-3.3 2.15.26 4.28c.01.15-.1.28-.25.29-.15 0-.28-.1-.28-.25v-.04l.26-4.28h.01Zm-2.44 0-1.44 2.75a.28.28 0 0 1-.37.12.28.28 0 0 1-.12-.36v-.04l1.92-2.47h.01Zm-1.44-4.16-2.54 1.5a.26.26 0 0 1-.36-.08v-.01a.26.26 0 0 1 .09-.37h.04l2.77-1.04Zm1.07 1.26-2.21 2.44a.27.27 0 0 1-.39-.03.27.27 0 0 1-.01-.34h.03l2.58-2.07Zm-1.2-3.28-2.14.27a.26.26 0 0 1-.3-.24.27.27 0 0 1 .24-.3h.06l2.14.27Zm.74-2.27-3.05-2.14a.26.26 0 0 1-.06-.37.27.27 0 0 1 .37-.07h.03l2.71 2.58Z"/></g><g fill="#FF406E" clip-path="url(#h)"><path d="m355.98 33.7 9.05-12.35a.43.43 0 0 1 .73.47l-.03.04-9.75 11.84Zm0 4.16 18.62 1.59c.24.02.42.23.4.47a.43.43 0 0 1-.48.4h-.02l-18.52-2.46Zm-1.3 3.9 8.58 13.1a.43.43 0 1 1-.73.47l-7.85-13.57Zm-3.45 0-4.33 16.92a.43.43 0 0 1-.52.3.43.43 0 0 1-.31-.52l5.16-16.7Zm-3.17-1.88-12.87 8.9a.43.43 0 1 1-.49-.7l13.36-8.2Zm0-4.47-13.26-4.65a.43.43 0 0 1-.26-.55.43.43 0 0 1 .53-.29h.04l12.95 5.48v.01Zm3.17-2.53-2.79-13.12a.45.45 0 0 1 .34-.52c.24-.06.47.1.53.34v.03l1.92 13.27Zm2.27 1.7.76-7a.43.43 0 0 1 .48-.39c.24.03.4.25.38.49v.05l-1.62 6.85Zm1.9 1.84 5.19-1.44c.23-.06.47.07.53.31a.44.44 0 0 1-.3.54h-.07l-5.35.6v-.01Zm-.72 2.45 5.55 2.5c.22.1.32.36.21.58a.43.43 0 0 1-.57.21.1.1 0 0 1-.05-.03l-5.14-3.26Zm-1.58 1.45 1.22 6.76a.43.43 0 1 1-.85.16v-.05l-.37-6.87Zm-2.21-1.05-4.05 5.46a.44.44 0 0 1-.7-.51l.04-.05 4.7-4.9Zm-1.14-2.23-5.95 1.25a.44.44 0 0 1-.52-.35.44.44 0 0 1 .34-.52h.06l6.07-.38Zm1.14-2.08-4.33-4.91a.43.43 0 0 1 .18-.59.44.44 0 0 1 .46.04l.03.05 3.65 5.42Zm15.31-2.59 4.7-1.46a.2.2 0 0 1 .27.13v.02c.03.1-.03.23-.14.27l-4.83 1.05Zm-1.73 12.78 4.22 2.41c.1.06.14.2.08.3-.06.1-.19.13-.3.07l-4-2.79v.01Zm-10.38 7.79v3.99c0 .12-.1.21-.21.21a.22.22 0 0 1-.22-.21v-.03l.43-3.96Zm-10.35-3.1-3.15 4.03c-.07.1-.2.13-.3.06a.22.22 0 0 1-.06-.3l.01-.02 3.49-3.77Zm-5.33-10.71-5.19.16c-.12 0-.22 0-.22-.13s.09-.14.2-.14l5.21.1Zm4.32-13.96-3.3-3.65a.22.22 0 0 1 0-.31.22.22 0 0 1 .3 0l3 3.96Zm13.25-3.56 1.17-4.44c.02-.12.15-.2.26-.16.12.02.2.15.17.26l-1.6 4.34Zm-3.75 11.89-.43-4.87a.22.22 0 0 1 .2-.24c.12 0 .22.08.23.2v4.9Zm2.87-.3 1.37-3.5a.22.22 0 0 1 .28-.13c.1.04.17.17.12.28v.02l-1.77 3.33Zm.94 1.95 3.23-1.65a.2.2 0 0 1 .29.09c.05.1.01.24-.1.3h-.02l-3.42 1.26h.02Zm.47 3.55 2.9.36c.12.02.2.13.18.25a.22.22 0 0 1-.24.18h-.04l-2.8-.8Zm-1.83 1.18 2.14 1.83c.1.08.1.22.02.31-.08.1-.21.1-.3.02l-1.86-2.16Zm-2.66 1.73.21 3.47c0 .12-.08.22-.2.23a.22.22 0 0 1-.23-.2v-.03l.21-3.47h.01Zm-1.97 0-1.17 2.23a.22.22 0 0 1-.3.1.22.22 0 0 1-.08-.3v-.03l1.54-2Zm-1.16-3.35-2.05 1.21a.2.2 0 0 1-.3-.06v-.02a.22.22 0 0 1 .08-.3h.03l2.24-.83Zm.86 1.01-1.79 1.98a.22.22 0 0 1-.3-.02.22.22 0 0 1-.02-.28h.03l2.08-1.68Zm-.97-2.64-1.73.22a.21.21 0 0 1-.24-.2.21.21 0 0 1 .2-.24h.04l1.73.22Zm.6-1.83-2.47-1.74a.21.21 0 0 1-.05-.3c.08-.1.2-.12.3-.05h.03l2.2 2.09h-.01Z"/></g><path fill="#FF9D0A" d="M992.23 325.03c1.6 2.28 3.88 4.93 6.62 5.82.69.22 3.85-1.79 3.95-1.7-1.02-1-2.45-1.63-3.55-2.56a21.65 21.65 0 0 1-3.12-3.23c-.37-.46-3.88 1.68-3.9 1.66v.01Z"/><defs><clipPath id="e"><path fill="#fff" d="M1242 150h71v145h-71z"/></clipPath><clipPath id="f"><path fill="#fff" d="M147 168h61v125h-61z"/></clipPath><clipPath id="g"><path fill="#fff" d="M992 11h52v52h-52z"/></clipPath><clipPath id="h"><path fill="#fff" d="M333 17h42v42h-42z"/></clipPath><linearGradient id="a" x1="720" x2="720" y1="0" y2="441" gradientUnits="userSpaceOnUse"><stop stop-color="#E1052E"/><stop offset="1" stop-color="#AE0121"/></linearGradient><linearGradient id="b" x1="720" x2="720" y1="0" y2="441" gradientUnits="userSpaceOnUse"><stop stop-color="#E1052E"/><stop offset="1" stop-color="#AE0121"/></linearGradient><linearGradient id="d" x1="720" x2="720" y1="282.5" y2="52.5" gradientUnits="userSpaceOnUse"><stop stop-color="#FFFDE8" stop-opacity=".15"/><stop offset="1" stop-color="#fff" stop-opacity="0"/></linearGradient></defs></svg>