<svg xmlns="http://www.w3.org/2000/svg" width="464" height="317" fill="none"><path fill="#F5F5F5" d="M232 317c128.13 0 232-5.16 232-11.5 0-6.36-103.87-11.5-232-11.5S0 299.13 0 305.5c0 6.34 103.87 11.5 232 11.5Z"/><path fill="#2B1F41" d="m156.7 70.38-6.8 7.03-3.13-2.36-1.24-.95-4.6-3.47-1.24-.93-4.58-3.48-1.26-.94-8.64-6.54 12.07-12.47 1.7 2.14 1.1 1.35 4.16 5.16 1.11 1.37v.02l4.12 5.11 1.1 1.35 6.12 7.61Z"/><path fill="#fff" d="M135.1 66.22c1.67-5.38 3.72-12.08 5-16.46l-1.12-1.35a867.02 867.02 0 0 1-5.12 16.87l1.25.94Zm4.6 3.48c1.55-5 3.22-10.42 4.53-14.77l1.1 1.38a1861.7 1861.7 0 0 1-4.42 14.33l-1.22-.92v-.02Zm10.86-6.93-3.8 12.28-1.23-.93c1.24-4 2.65-8.55 3.92-12.7l1.1 1.35h.01Z" opacity=".5"/><path stroke="#455170" stroke-miterlimit="10" d="M155.57 75.95c6.7 4.33 23.7 13.5 35.21 16.16"/><path fill="#B55B52" d="m231.2 54.53 1.43 1.45c.69.46 11.32 31.3 11.52 32.08.07.26.25 1.42.27 1.73 0 .38-.03.76-.05 1.12a6.77 6.77 0 0 1-.87 2.43 6.71 6.71 0 0 1-2.5 2.35c-.76.45-1.6.77-2.47.95-1.08.22-28.82-2.8-34.36-5.19l.09-5.63c5.7 1.18 24.39.94 27.08 1.15 1.24.12 2.49.14 3.74.08.36 0 .73-.07 1.07-.18.06-.01-.05-.04-.42.16-.28.17-.53.37-.74.6a3.65 3.65 0 0 0-.93 2c-.04.2-.04.4-.04.59.01.14.05.27.1.4l.06.24.05.2-1.15-1.71c-.75-1.17-7.52-23.04-8.05-23.4l-.8-.54-.65-.43s7.23-10.7 7.62-10.47v.02Z"/><path fill="#B55B52" d="m205.94 86.07-7.45-1.34a4.06 4.06 0 0 0-3.33.9l-3.03 2.55a4.05 4.05 0 0 0 2.82 7.15l5.44-.27 5.58-3.66-.03-5.34v.01Z"/><path fill="#D6D9E0" d="M232.45 55.48c4.33 3.1 8.48 18.92 8.48 18.92l-16.57 5.57c-3.33-4.3-7.92-15.45-6.89-23.03.42-2.87 8.42-6.2 15-1.46h-.02Zm-62.28 224.96c-.17-.39-.16-.82.04-1.2a.7.7 0 0 1 .57-.4c1.28-.14 4.07 3.2 4.38 3.58.07.07.06.18.02.26-.04.08-.14.12-.23.1-1-.2-1.96-.5-2.91-.88a3.8 3.8 0 0 1-1.87-1.46Zm4.19 1.76c-1.17-1.32-2.86-2.97-3.57-2.92a.29.29 0 0 0-.22.17.81.81 0 0 0-.03.78c.35.72 1.75 1.43 3.83 1.95l-.01.02Z"/><path fill="#D6D9E0" d="M174.78 282.79c-.86-.95-2.16-3.8-1.58-4.7.15-.22.43-.44 1.03-.24l.17.03c1.97.86.8 4.64.77 4.8-.02.08-.09.13-.16.16-.05 0-.1 0-.13-.03h-.1v-.02Zm-.65-4.56c-.38-.12-.5.04-.5.04-.38.56.44 2.69 1.23 3.81.22-.95.62-3.26-.63-3.81l-.08-.03h-.02Z"/><path fill="#B55B52" d="m183.91 261.85-9.7-1.33.9 22 9.7 1.36-.9-22.03Z"/><path fill="#455170" d="M173.2 281.24c-2.86 1.56-4.02 3.58-11.66 3.56-1.69 0-2.21 3.95 1.7 4.81 3.93.87 7.72 1.4 10.56 2.02 4.63 1.02 6.35 1.62 10 2.49.08.01.15.03.23.03a1.5 1.5 0 0 0 1.6-1.37l.33-8.65a.79.79 0 0 0-.62-.8l-10.5-2.32a2.39 2.39 0 0 0-1.65.25v-.02Z"/><path fill="#000" d="m183.93 261.87.45 11.36-9.67-.47-.48-12.24 9.7 1.35Z" opacity=".2"/><path fill="#D6D9E0" d="m186.3 270.05-13.53-1.15s-11.05-39.43-12.41-71.1c-.36-8.36 2.57-19.77 6.86-31.62v-.01c4.63-12.77 10.8-26.07 16.09-36.64a453.5 453.5 0 0 1 11-20.7s10.76.48 21.03 1.5c11.7 44.65-34.21 53.85-34.33 87.54-.12 30.9 5.3 72.18 5.3 72.18Z"/><path fill="#fff" d="m186.3 270.05-13.53-1.15s-11.05-39.43-12.41-71.1c-.36-8.36 2.57-19.77 6.86-31.62v-.01c4.63-12.77 10.8-26.07 16.09-36.64a453.5 453.5 0 0 1 11-20.7s10.76.48 21.03 1.5c11.7 44.65-34.21 53.85-34.33 87.54-.12 30.9 5.3 72.18 5.3 72.18Z" opacity=".3"/><path fill="#D6D9E0" d="m170.25 263.05 17.47 2.88-.24 4.68-16.23-.98-1-6.58Z"/><path fill="#455170" d="M202.03 19.46c-.53-.09-1.04.47-1.15 1.24-.1.77.13 1.42.67 1.5.52.08 1.02-.49 1.15-1.25.17-.75-.14-1.4-.67-1.5Z"/><path fill="#455170" d="m200.34 18.95 1.91.26c-.78 1.04-1.91-.26-1.91-.26Z"/><path fill="#A02724" d="M201.08 27.04c-.98.06-1.93-.3-2.61-1.01a20.9 20.9 0 0 0 3.74-4.3l-1.13 5.3Z"/><path fill="#455170" d="M202.22 15.37a.44.44 0 0 1 .4-.5 4.59 4.59 0 0 1 4 1.18c.13.17.13.4-.01.56a.45.45 0 0 1-.64.06 3.76 3.76 0 0 0-3.22-.9.58.58 0 0 1-.22-.03.45.45 0 0 1-.32-.37Z"/><path fill="#B55B52" d="M210.86 38.2c.02 4.5-.95 9.09-7.54 9.18 0 0-7.32 4.25 4.08 6.77 10.4 2.3 15.55-2.28 15.55-2.28-2.98-4.52-1.56-14.08.9-19.34l-13 5.68.01-.01Z"/><path fill="#000" d="M187.4 53.05c-.87 3.58-2.06 8.78-3.45 16.04 2.13-.85 4.1-2.03 5.87-3.5 6.15-5.11 2.11-11.01-2.42-12.54Z" opacity=".2"/><path fill="#B55B52" d="M228.71 16.3a12.66 12.66 0 0 0-15.5-8.99c-9.88 2.37-13.58 15.99-13 24.64.63 9.61 11.6 13.99 20.03 7.89 5.6-4.08 6.3-8 8.52-17.21.52-2.07.5-4.26-.05-6.33Z"/><path fill="#D6D9E0" d="M187.6 52.25c-1.86 7.35-3.15 21.53-8.88 48.75l37.26 11.82c4.12-13.7 6.08-24.04 18.59-47.52l.22-.44a8.75 8.75 0 0 0-4.23-11.6 85.24 85.24 0 0 0-35.1-7.25 8.2 8.2 0 0 0-7.86 6.24Z"/><path fill="#B55B52" d="M209 20.9c-2.37 1.14-3.35 4.42-3.3 6.33.06 2.12 1.87 3.09 3.92 1.19a9.76 9.76 0 0 0 2.96-5.06c.41-2.19-1.2-3.6-3.58-2.47Z"/><path fill="#000" d="M161.8 184.4a283.5 283.5 0 0 0 5.41-18.22v-.01c4.62-12.77 10.8-26.07 16.08-36.64l.06-.01.3.06c1.57 0 2.73 1.23 3.36 4 9.02 12.07-13.9 36.9-25.2 50.82Z" opacity=".2"/><path fill="#D6D9E0" d="M96.33 250.9c-.19-.37-.19-.8.01-1.17.1-.23.31-.4.57-.43 1.3-.18 4.17 3.1 4.5 3.47a.2.2 0 0 1 .02.26c-.05.1-.15.13-.25.11-1-.18-1.97-.44-2.92-.8a3.65 3.65 0 0 1-1.94-1.42l.01-.01Zm.62-1.13a.25.25 0 0 0-.2.17.85.85 0 0 0-.02.8c.37.67 1.8 1.35 3.88 1.81-1.2-1.3-2.92-2.9-3.66-2.78Z"/><path fill="#D6D9E0" d="M101.09 253.06c-.88-.93-2.25-3.71-1.7-4.66.13-.21.43-.43 1-.26l.18.08c1.98.82.96 4.6.88 4.77a.24.24 0 0 1-.16.16h-.14l-.07-.08v-.01Zm-.82-4.47c-.4-.12-.49.07-.49.07-.34.56.5 2.66 1.35 3.76.19-.97.56-3.28-.72-3.8l-.13-.04-.01.01Z"/><path fill="#B55B52" d="m115.86 236.34-8.5-4.03-5.54 22.36 8.51 4.01 5.53-22.34Z"/><path fill="#455170" d="M100.06 252.25c-3.15.89-6.7 1.67-14.14-.03-1.67-.38-3.06 3.36.58 5.05 3.64 1.7 9.2 3.98 11.85 5.22 4.29 2 5.83 2.98 9.2 4.62l.23.09c.78.24 1.62-.2 1.85-.99l2.3-8.32a.78.78 0 0 0-.43-.92l-9.74-4.57a2.5 2.5 0 0 0-1.7-.14Z"/><path fill="#000" d="M115.88 236.35 113 247.87l-8.74-3.13 3.1-12.41 8.5 4.02Z" opacity=".2"/><path fill="#D6D9E0" d="M206.49 109.97c-9.93 44.34-61.74 38.2-71.71 69.05-9.14 28.32-19.91 66.65-19.91 66.65l-13.03-4.92s6.6-39.12 14.14-68.38c7.27-28.16 63.24-71.13 63.24-71.13s17.18 5.29 27.27 8.71v.02Z"/><path fill="#fff" d="M206.49 109.97c-9.93 44.34-61.74 38.2-71.71 69.05-9.14 28.32-19.91 66.65-19.91 66.65l-13.03-4.92s6.6-39.12 14.14-68.38c7.27-28.16 63.24-71.13 63.24-71.13s17.18 5.29 27.27 8.71v.02Z" opacity=".3"/><path fill="#D6D9E0" d="m101.28 234.22 17.07 8.06-2.09 4.17-16.5-5.96 1.52-6.27Z"/><path fill="#fff" d="M216.94 110.36 178.99 98.4c-.36-.12-.77-.05-.87.16l-1.42 3.04c-.08.18.11.38.43.53l39.3 12.4c.42.13.87 0 .88-.27l.11-3.45a.56.56 0 0 0-.5-.45h.02Z"/><path fill="#455170" d="M216.94 110.36 178.99 98.4c-.36-.12-.77-.05-.87.16l-1.42 3.04c-.08.18.11.38.43.53l39.3 12.4c.42.13.87 0 .88-.27l.11-3.45a.56.56 0 0 0-.5-.45h.02ZM227.7 6.8c-5.49-1.4-4.47 1.44-7.02-.23-6.75-4.44-11.07-2.83-14.27 2.2-3.35 5.28-1.12 7.3-4 14.62-.4 1.06-.14 2.32.29 3.36.43 1.06 1.45 1.95 2.58 1.88-.95 3.77.95 8.36 4.57 9.73 4.45 1.68-1.25 4.64 3.01 8.74 1.97 1.88 5.46 2.25 7.88 1.03 4.1 6.3 15.03 6.92 20.75 2.04 6.28-5.37-.9-6.53-.86-7.3 3.05.5 7.5-1.22 6.59-4.87-.89-3.57-6.51-2.78-8.48-3.42 2.1.45 4.4-.04 6.15-1.31a4.55 4.55 0 0 0 1.68-2.08c1.15-3.25-3.6-2.33-6.77-5.16-5.51-4.93-.78-16.33-12.1-19.22V6.8Z"/><path fill="#B55B52" d="m193.02 47.48-36.7 29.08c1.6 3.43 6.32 6.64 9.57 4.68 9.68-5.84 27.34-16.6 31.9-22.97 6.28-8.77-4.77-10.8-4.77-10.8Z"/><path fill="#B55B52" d="M165.61 69.55c-4.62.49-5.24.34-8.76.66-1.06.1-1.88 1.16-2.33 2.12-3 6.42 1.65 6.07 6.64 9.37 1.8 1.2 5.62.07 7.02-2.77 1.4-2.85.87-8-2.57-9.38Z"/><path fill="#B55B52" d="m157.03 70.79-7.37-1.7a4.03 4.03 0 0 0-3.37.72l-3.15 2.4a4.07 4.07 0 0 0 2.44 7.3h4.1l7.03-1.69.3-7.02.02-.01Z"/><path fill="#000" d="M188.11 66.57c-1.18 1.03-2.4 2.1-3.1 3.5-.73 1.48-.83 3.17-.92 4.8-.07 1.04-.08 2.2.66 2.95 1.03 1.05 2.83.51 4.09-.26 3.38-2.1 5.87-5.44 7.58-9.05.63-1.32 4.8-10.36 2.03-10.66-1.2-.14-4.05 3.24-4.97 4.05-1.78 1.56-3.57 3.13-5.37 4.68Z" opacity=".2"/><path fill="#D6D9E0" d="M199.9 60.19c-1.65 5.07-11.56 13.3-11.56 13.3L178 59.4c3.1-4.48 8.42-11.74 15.95-13.07 2.85-.48 8.46 6.14 5.96 13.86Z"/><path fill="#F8A492" d="M322.49 51.16c1.42 2.3 3.8 5.88 3.8 5.88l2.83 11.36 7.14-5.87s-3.03-8.96-2.85-9.63c.16-.56.87-.15 2.22-4.5.39-1.27-.07-3.15-.07-3.15s-.6-2.3-1.17-2.35c-.58-.04-1.06.48-1.12.93-.05.45.29 1.34.23 1.8-.06.44-1.09 1.3-1.6 1.43-.5.13-2.11-6.7-2.11-6.7s-.34-1.98-.4-2.64c-.05-.57-.07-2.27-.07-2.27s-.16-2.42-.92-2.37c-.45.04-.9 2.2-1 4.36-.1 2.33.18 4.67-.06 4.72-.54.1-1.45-3.65-1.45-3.65s-.03-1.83-.3-2.62c.18-1.12-.08-3.02-1-2.9-.16.03-.56 2.68-.56 2.68s.07 1.74.05 2.58c-.03 1.47.59 3.58.64 4.57.05.83-.23.58-.3.63-.06.05-.3-1.04-.64-2.54-.17-.75-.53-1.57-.6-2.46-.06-.84-.31-1.98-.48-2.66-.47-1.93-1.6-1.35-1.46.5.05.71.12 1.48.2 2.26.27 3.04 1.18 5.76.88 5.88-.4.16-1.75-4.89-1.75-4.89s-1.5-2.55-1.29.2a23.25 23.25 0 0 0 1.17 5.67c.3.7.6 3.46 2.03 5.75Z"/><path fill="#F48C7F" d="m401.08 53.98 8.24.05c.41-1.52.14-6.4.8-8.47l-8.7-1.56c-.6 0-1.18-.3-1.5-.82a5.27 5.27 0 0 1-.47-.89c-.16-.51-.4-1.1-.56-1.62-.17-.51-1.77-.6-2.4-.35-.63.24.7 2.33.92 3.08.67 2.26 3.54 7.68 4 8.6l-.33 1.98Z"/><path fill="#F7A491" d="M409.32 42.53c-.37-.34-.8-.65-1.27-.92a4.35 4.35 0 0 0-1.53-.57c-.2 0-.53-.24-.9-.46a1.6 1.6 0 0 0-.37-.17 3.61 3.61 0 0 0-1.19-.14c-.38 0-.76-.06-1.34-.24a2.78 2.78 0 0 0-1.37-.1c-.45.09-.71.27-.67.56.16 1.33-.3 6.34 1.9 6.94 1.84.5 4 .85 4.68 1.23.93.52 2.1-.44 2.6-1.24.96-1.53 1.37-3.16-.54-4.9Zm-81.88 196.95s-7.7-.86-8.98-1.48c-1.27-.61-7.74 5.45-6.46 8.5.73 1.7 3.01 1.49 3.01 1.49l1.85-1.78 9.78 2 .8-8.73Zm43.98 31.86s-4.06 6.49-5.17 7.36c-1.1.87 1.76 9.19 5.1 9.33 1.9.09 2.66-2.04 2.66-2.04l-.85-2.39 5.98-7.85-7.72-4.41Z"/><path fill="#455170" d="M366.5 278.45s2.33 2.91 3.6 4.07a42.89 42.89 0 0 0 3.74 2.97s2.39 4.24 3.04 5.72c1.44 3.29 3.07 6.96 2.84 8.8-.08.6-1.44 1.23-2.56.88-4.7-1.41-16.73-12.2-18.25-15.1-1.75-3.35 7.59-7.34 7.59-7.34Z"/><path fill="#DEE1E6" d="M400.82 179.67c-.44-1.2-.86-2.3-1.26-3.35-5 1.07-10.65 2.25-16.46 3.47l-.71 20.9c0-1.62 4.37 33.34 4.37 33.34s-11.88 23.14-19.6 37.44c3.17 3.88 5.6 5.58 10.2 8.22 11.99-14.1 27.31-38.96 27.96-43.25.38-2.47.71-42.37-4.5-56.76Z"/><path fill="#E2E4E9" d="M356.18 185.72c1.36 14.49 3.6 36.42 4.01 43.8-9.54 1.36-32.1 8.01-36.3 8-1.6 3.5-2.48 7.75-1.38 11.24.22.69 44.5 2.07 55.93-5.08 2.98-1.87 3.9-21.88 3.95-42.99l.7-20.9c-9.68 2.02-18.58 4-26.92 5.93Z"/><path fill="#D6D9E0" d="m387.98 111.48-10.87 1.6s-8.2.13-10.38.15c-.19 0-8.71 40.8-10.78 56.15-2.07 15.36-.47 18.08-.47 18.08s14.45 3.19 25.14 2.26c11.12-.97 23.63-6.86 23.63-6.86s-10.2-29.93-12.1-39.14c-1.88-9.21-4.17-32.24-4.17-32.24Z"/><path fill="#E2E4E9" d="M410.31 54.54s-.95 37.8-2.12 40.13l-13.85 27.51s9.14 37.55 12.98 50.51c.39 1.3 2.1 9.74 2.1 10.56 0 1.83-8.09 4.14-9.05 4-.86-.12-7.91-35.83-12.42-53.3a49.58 49.58 0 0 0-7.72-16.52l-3.14-4.37 18.57-22.05s4.02-34.9 4.02-37.08c0-.57 9.47-1.53 10.63.61ZM366 115.8l-17.87-30.1s-12.08-28.93-12.38-30c-.29-1.05-9.78.15-12.78-.14-.96-.09 12.64 30.37 14.08 35.45 1.7 6 10.77 29.46 10.77 29.46s6.28 14.05 5.3 24.9c-1.63 18.04-4.85 44.02-4.06 44.8 4.87 3.01 20.2 2.9 21.39 1.04 13.07-20.66-4.46-75.4-4.46-75.4v-.01Z"/><path fill="#F7A491" d="m376.36 107.57.8 5.9s1.82 8.48-.51 10.11c-2.33 1.64-9.92-10.36-9.92-10.36l.8-14.92 8.83 9.27Z"/><path fill="#F47458" d="M367.27 103.13c1.93 5.1 6.52 8.22 9.77 9.44l-.68-5-8.83-9.27-.26 4.84Z"/><path fill="#455170" d="M318.8 238.11s-1.7 3.3-2.24 4.93c-.69 2.1-1.15 4.58-1.15 4.58s-2.9 3.91-4 5.12c-2.43 2.68-5.4 5.85-7.2 6.43-.58.18-2.23-.3-2.21-1.56.06-4.82 4.79-20.56 6.82-23.14 2.34-2.97 9.98 3.64 9.98 3.64Z"/><path fill="#F7A491" d="M362.27 87.92c-.3-.05.07 14.89 4.44 18.33 4.38 3.45 11.87 3.63 13.97.05 2.33-3.96-.32-19.67-6.79-22.9-6.46-3.24-11.62 4.52-11.62 4.52Z"/><path fill="#455170" d="M370.43 75.91c-4.34 1.62-12.28 8.28-14.38 13.48-2.6 6.38 1.03 12.44 5.63 14.97 4.6 2.54 5.14 6.22 5.14 6.22l.34-2c.24-1.52.2-3.07-.2-4.55a8.82 8.82 0 0 0-1.1-2.58c-1.31-1.97 1.56-3.86 2.15-5.76.45-1.46-.01-4.57.69-6.98l.98-1.9s1.76-1.89 4.05-2.4c.46-.12.94-.16 1.44-.13 2.94.2.83-10.45-4.74-8.37Z"/><path fill="#F7A491" d="M368.24 98.33c.3 1.78-.27 3.36-1.3 3.54-1.02.18-2.1-1.12-2.42-2.9-.32-1.78.26-3.37 1.29-3.55 1.02-.17 2.11 1.13 2.43 2.9Z"/><path fill="#455170" d="M373.46 84.47s3.72.71 5.17-2.85c1.46-3.57-2.42-10.35-3.83-4.38-.85 3.56-1.34 7.23-1.34 7.23Zm-14.02-.19s-6.51 1.98-4.5 8.74c2 6.77 4.82-4.77 4.82-4.77l-.31-3.97Z"/><path fill="#fff" d="m380.49 100.14-6.04 1.39s.67 2.24 3.35 1.7c3.25-.65 2.69-3.09 2.69-3.09Z"/></svg>