<svg xmlns="http://www.w3.org/2000/svg" width="464" height="287" fill="none"><path fill="#F5F5F5" d="M232 287c128.13 0 232-5.15 232-11.5S360.13 264 232 264 0 269.15 0 275.5 103.87 287 232 287Z"/><g clip-path="url(#a)"><path fill="#FF887B" d="m97.26 94.43-1.1.36-1.02.31c-.67.2-1.34.35-2 .52-1.33.3-2.66.6-4 .83-2.7.47-5.42.74-8.17.81-2.8.1-5.62-.07-8.39-.5a37.1 37.1 0 0 1-8.41-2.3l-.39-.16a4.37 4.37 0 0 1-1.98-1.6 56.96 56.96 0 0 1-3.67-6.38 152.58 152.58 0 0 1-8.02-19.03c-.52-1.54.3-3.2 1.8-3.73a2.9 2.9 0 0 1 3.3 1.06c2.62 3.67 5.09 7.43 7.57 11.14l3.68 5.51c.63.91 1.24 1.8 1.85 2.65l.92 1.22.88 1.09-2.36-1.75a35.24 35.24 0 0 0 12.65 1.13 65.96 65.96 0 0 0 9.98-1.52l1.64-.4.79-.2.68-.2.35-.1a5.8 5.8 0 0 1 7.23 3.92c.94 3.1-.8 6.36-3.87 7.29h.04l.02.03Z"/><path fill="#FF887B" d="m56.36 69.27.9-6.29-8.53-.01s-.51 4.95 3.3 7.74l4.34-1.43Z"/><path fill="#FF887B" d="m52.7 57.73-2.38.67a2.5 2.5 0 0 0-1.8 2.67l.2 1.92 8.54.02-1.63-3.83a2.46 2.46 0 0 0-2.94-1.45h.01Z"/><path fill="#D6D9E0" d="M92.06 92.12c3 6.68 10.32 19.78 27.81 41.7 9.63-.19 28.33-14.97 34.36-22.44-2.94-5.04-11.16-21.5-25.7-42.04a7.04 7.04 0 0 0-9.27-3.7l-.24.1a86 86 0 0 0-5.68 3.03c-5.04 2.9-9.92 6.07-14.6 9.53a82.8 82.8 0 0 0-4.79 4.22 8.54 8.54 0 0 0-1.9 9.6Z"/><path fill="#FF887B" d="M103.1 59.31c2.52 4.8 6.17 9.9 10.22 10.5-1.8 4.55-2.47 11.5-4.62 16.53-.93 2.2-3.65 3.14-5.63 1.8-4-2.66-5.08-7.94-5.08-7.94 3.25-4.91 1.1-8.27-2.3-11.27l3.66-9.66c.53-1.74 2.84-1.72 3.77.03l-.01.01Z"/><path fill="#000" d="M103.1 59.31c-.94-1.8-3.23-1.76-3.77-.03l-3.65 9.66a11.9 11.9 0 0 1 3.6 4.78 11.9 11.9 0 0 0 6.58-9.85 45 45 0 0 1-2.74-4.56h-.01Z" opacity=".2"/><path fill="#FF887B" d="M103.55 47.68c3.14 7.02 5.32 11 3.33 16.53-3 8.32-13.96 10.2-19.36 4.34-4.84-5.25-9.1-15.92-3.1-22.56 6-6.66 16.05-5.35 19.15 1.7l-.02-.01Z"/><path fill="#455170" d="M91.3 54.6c.18.65 0 1.29-.42 1.41-.44.12-.93-.3-1.1-.95-.18-.65-.02-1.28.41-1.4.43-.13.93.3 1.1.95Zm-6.5 3.56c.18.66 0 1.29-.42 1.42-.42.13-.93-.31-1.12-.97-.19-.65-.01-1.28.42-1.4.43-.12.94.32 1.1.96h.01Zm8.1-6.83a.42.42 0 0 1-.42-.04 3.1 3.1 0 0 0-2.8-.57.39.39 0 0 1-.5-.23.4.4 0 0 1 .23-.5 3.94 3.94 0 0 1 3.55.66.4.4 0 0 1 .08.56l-.14.12Zm-12 4.99a.4.4 0 0 1-.53-.18.41.41 0 0 1-.03-.24c.17-1.28.94-2.4 2.07-2.99a.4.4 0 0 1 .52.2c.08.2-.01.44-.2.52A3.2 3.2 0 0 0 81.09 56c0 .14-.08.26-.2.33l.02-.01Z"/><path fill="#FF5652" d="M86.64 58.13a21.16 21.16 0 0 1-.9 5.64c.94.27 1.95.1 2.77-.46l-1.86-5.18h-.01Z"/><path fill="#000" d="m98.16 47.39 5.45 9.52c.1-2.33.62-4.65 1.5-6.83a19.34 19.34 0 0 1-2.65-4.32c-1.43.58-2.87 1.05-4.3 1.63Z" opacity=".2"/><path fill="#FF887B" d="M107.75 51.97a6.33 6.33 0 0 1-1.97 4.13c-1.5 1.3-2.92-.17-3.15-2.31-.18-1.92.38-4.89 2.16-5.32 1.78-.44 3.14 1.44 2.96 3.5Z"/><path fill="#455170" d="M88.5 66.05s1.98-2.07 8.4-6.5c.4 2.32-.08 4.75-3.39 7-3.3 2.25-5.01-.5-5.01-.5Z"/><path fill="#FF5652" d="M94.13 64.08a8.01 8.01 0 0 0-3.03 3.34 4.4 4.4 0 0 0 2.4-.88 8 8 0 0 0 3.03-3.33c-.86.05-1.69.35-2.39.87Z"/><path fill="#FAFAFA" d="M88.76 65.8a1.5 1.5 0 0 0 1.57.2 45.7 45.7 0 0 0 5.39-4.36 2.3 2.3 0 0 0 .9-1.89 71.34 71.34 0 0 0-7.86 6.04Z"/><path fill="#000" d="M130.18 124.14c.3.36.7.53.97.34.27-.2.28-.67.02-1.06-.26-.37-.7-.53-.97-.34-.27.2-.28.68-.02 1.06Z" opacity=".2"/><path fill="#D6D9E0" d="m119.87 133.82 2.27 9.39 21.96 17.33s17.19-29.16 20.5-32.46l-11.34-18.2s-25.34 11.37-33.4 23.94Z"/><path fill="#fff" d="M164.6 128.08c-3.33 3.31-20.5 32.46-20.5 32.46l-21.96-17.32-1.31-5.46 3.48-3c7.41-6.92 26.88-17.15 32.1-19.84l8.19 13.17v-.01Z" opacity=".3"/><path fill="#D6D9E0" d="M126.56 140.35S82.14 166.3 87.3 180.58c5.16 14.29 35.62 48.17 44.99 60.43l9.69-6.67s-21.04-40.05-31.82-52.9c0 0 65.81-26.4 46.1-54.82l-29.71 13.74v-.01Z"/><path fill="#fff" d="M126.56 140.35S82.14 166.3 87.3 180.58c5.16 14.29 35.62 48.17 44.99 60.43l9.69-6.67s-21.04-40.05-31.82-52.9c0 0 65.81-26.4 46.1-54.82l-29.71 13.74v-.01Z" opacity=".2"/><path fill="#FFB573" d="m139.62 234.25 7.33 12.33-6.71 3.38-7.25-10.83 6.63-4.88Z"/><path fill="#D6D9E0" d="M136.57 252.32c-.99.43-2.09.69-2.6.4a.77.77 0 0 1-.34-.84c.03-.27.18-.53.41-.7 1.17-.95 4.63-.55 4.79-.52.08.01.15.07.18.16 0 .08-.01.17-.1.22-.73.5-1.52.92-2.33 1.28Zm-1.93-1.02c-.13.05-.24.12-.35.2a.56.56 0 0 0-.25.43c-.04.3.05.4.14.43.6.37 2.6-.49 4.01-1.3a9.54 9.54 0 0 0-3.55.25v-.01Z"/><path fill="#D6D9E0" d="M138.88 251.05s-.05.03-.08.03c-1.14-.01-3.78-.93-4-1.92-.07-.22-.02-.56.47-.83.36-.21.79-.25 1.2-.13 1.37.4 2.5 2.48 2.56 2.58.03.06.02.14-.01.2a.18.18 0 0 1-.13.07Zm-3.32-2.4-.12.03c-.32.18-.3.32-.28.38.19.58 2.02 1.4 3.25 1.56a4.84 4.84 0 0 0-2.1-2.01 1.08 1.08 0 0 0-.76.04Z"/><path fill="#455170" d="m139.25 249.56 8.69-3.75c.33-.15.7-.04.92.26l4.6 6.46a1.27 1.27 0 0 1-.49 1.92c-3.16 1.3-6.02 2.32-9.9 4-4.61 2-3.2 2.05-8.58 4.47-3.24 1.44-5.43-2.05-4.13-2.81 5.98-3.54 5.8-5.76 7.27-9.09.34-.67.93-1.18 1.63-1.45v-.01Z"/><path fill="#000" d="m139.25 249.56 8.69-3.75c.33-.15.7-.04.92.26l4.6 6.46a1.27 1.27 0 0 1-.49 1.92c-3.16 1.3-6.02 2.32-9.9 4-4.61 2-3.2 2.05-8.58 4.47-3.24 1.44-5.43-2.05-4.13-2.81 5.98-3.54 5.8-5.76 7.27-9.09.34-.67.93-1.18 1.63-1.45v-.01Z" opacity=".1"/><path fill="#000" d="m140.76 236.2 2.76 4.62-6.64 4.13-2.4-3.59 6.28-5.16Z" opacity=".2"/><path fill="#D6D9E0" d="m142.55 230.3 2.93 5.05-12.52 9.47-4.27-4.31 13.86-10.21Z"/><path fill="#D6D9E0" d="M157.23 119.06c-4.32 2.9-34.91 22.7-43.85 40.32-9.4 18.54-2.14 24.97 7.31 41.31 9.46 16.34 23.51 46.17 23.51 46.17l10.46-4.58s-7.95-38.91-22.35-66.87c0 0 56.95-26.47 24.92-56.35Z"/><path fill="#fff" d="M157.23 119.06c-4.32 2.9-34.91 22.7-43.85 40.32-9.4 18.54-2.14 24.97 7.31 41.31 9.46 16.34 23.51 46.17 23.51 46.17l10.46-4.58s-7.95-38.91-22.35-66.87c0 0 56.95-26.47 24.92-56.35Z" opacity=".3"/><path fill="#FFB573" d="m152.8 240.64 3.8 14.76-7.84 1.39-4.15-13.21 8.2-2.94Z"/><path fill="#D6D9E0" d="M146.17 260.28c-.83.77-1.85 1.43-2.46 1.32a.83.83 0 0 1-.63-.72c-.06-.3 0-.6.16-.85.83-1.36 4.44-2.2 4.59-2.23a.2.2 0 0 1 .23.1c.05.08.05.17-.01.26a16.6 16.6 0 0 1-1.89 2.12h.01Zm-2.28-.33c-.1.1-.2.2-.27.32a.64.64 0 0 0-.1.52c.06.3.19.37.29.38.72.16 2.43-1.42 3.54-2.74-1.24.28-2.41.8-3.46 1.52Z"/><path fill="#D6D9E0" d="M148.03 258.18s-.04.05-.08.06c-1.14.4-4.11.43-4.67-.47-.15-.2-.22-.56.17-1.01.3-.34.7-.54 1.14-.56 1.51-.09 3.38 1.59 3.47 1.66.05.06.07.14.06.21-.02.05-.06.08-.1.12Zm-4.18-1.23-.1.08c-.26.3-.18.43-.15.48.39.5 2.5.68 3.8.4a5.16 5.16 0 0 0-2.8-1.27 1.2 1.2 0 0 0-.75.31Z"/><path fill="#455170" d="m147.87 256.56 7.36-6.87a.8.8 0 0 1 1-.06l6.9 4.81a1.37 1.37 0 0 1 .16 2.11c-2.7 2.43-5.2 4.48-8.5 7.57-3.9 3.64-2.47 3.19-7 7.54-2.73 2.6-6.14-.1-5.11-1.35 4.73-5.68 3.8-7.83 4.08-11.7.1-.8.5-1.51 1.1-2.04l.01-.01Z"/><path fill="#000" d="m153.41 242.96 1.42 5.53-7.98 2.2-1.38-4.39 7.94-3.34Z" opacity=".2"/><path fill="#D6D9E0" d="m157.1 238.96 1.13 5.73-14.9 4.83-2.64-5.47 16.41-5.1Z"/><path fill="#FF887B" d="m120.47 65.47 1.14-1.36 1.17-1.44a135.43 135.43 0 0 0 6.67-9c1.39-2.01 2.7-4.1 3.89-6.23a60.9 60.9 0 0 0 3.1-6.4l-.13.5c.37-1.29.58-2.61.63-3.95.13-1.53.16-3.23.15-4.92-.02-1.68-.02-3.4-.05-5.13-.02-1.73-.08-3.5-.09-5.2l.01-.1a2.95 2.95 0 0 1 5.61-1.1 64.1 64.1 0 0 1 3.2 10.6c.4 1.87.7 3.77.88 5.68.26 2.2.2 4.42-.17 6.61l-.03.18-.1.32a60.98 60.98 0 0 1-3.17 8.1 82 82 0 0 1-4.08 7.4 94.17 94.17 0 0 1-7.27 10.14 62.01 62.01 0 0 1-2.8 3.23 5.76 5.76 0 0 1-8.18.5 5.9 5.9 0 0 1-.53-8.26l.13-.15.02-.02Z"/><path fill="#FF887B" d="m137.38 23.13-3.35-5.4 7.8-3.47s2.47 4.32.06 8.39l-4.51.48Z"/><path fill="#FF887B" d="m135.8 10.86 2.82-.26c1.16-.12 2.23.6 2.59 1.7l.62 1.96-7.8 3.48-.44-4.14a2.49 2.49 0 0 1 2.2-2.74h.02Z"/><path fill="#455170" d="M93.29 45.03a6.03 6.03 0 0 0 1.95 3.21c2.07 1.71 4.52-.47 6.92-1.64.25-.12.52-.25.67-.5.33-.54-.13-1.22-.56-1.7-1.29-1.4-2.64-2.87-4.43-3.52-3.87-1.42-5.22 1.38-4.56 4.14Z"/><path fill="#455170" d="M83.84 50.66c-4.42.35-8.89.15-13.25-.6 1.64-.6 3.27-1.22 4.92-1.81a7.51 7.51 0 0 1-4.28-3.8c2.38.6 4.95.4 7.23-.51-1.1-.6-2.18-1.22-3.27-1.83a72.2 72.2 0 0 1 10.07-2.5l-2.76-1.98 7.9 1.14-1.28-1.97c2.68-.02 7.54.57 9.2 3.07 1.19 1.75.55 3.38-1.27 4.01-2.08.73-4.42.5-6.53 1.23a12.24 12.24 0 0 0-3.7 2.07c-.52.43-2.63 3.44-2.98 3.48Z"/><path fill="#FF887B" d="M120.33 65.62s-5.68 4.78 4.31 15.26c10 10.46 5.7-8.96 5.7-8.96s-2.4-8.7-10-6.3Z"/><path fill="#000" d="M156.4 114.9c-5.2 2.7-24.68 12.93-32.1 19.84l-3.48 3.01-.95-3.94c8.06-12.59 33.4-23.94 33.4-23.94l3.14 5.02-.01.02Z" opacity=".2"/></g><path fill="#455170" d="M329.81 5.27a9.35 9.35 0 0 1 9.08-5.24c.68.07 1.37.2 1.94.57.58.36 1.04.97 1.08 1.65.03.68-.44 1.4-1.1 1.52 3.82.26 7.58 2.56 9.6 5.83.47.76.87 1.65.67 2.51-.2.87-1.26 1.56-2.01 1.09 1.29.08 2.6 1.22 3.3 2.3.7 1.1.98 2.4 1.1 3.7.07.84.07 1.76-.45 2.43-.55.69-1.53.9-2.4.75a7.5 7.5 0 0 1-2.42-1.05c.77.22 1.24 1.03 1.35 1.82a6.98 6.98 0 0 1-.3 3.66c-.49 1.14-1.58 2.1-2.8 2.13-1.24.03-2.47-1.11-2.27-2.34-.13.87.2 1.84.12 2.71a5.1 5.1 0 0 1-.77 2.49c-.5.71-1.35 1.24-2.22 1.12-.96-.12-1.7-.97-2.08-1.85-.4-.89-.56-1.87-.96-2.76.13 1.89.38 4.01-.11 5.83-.17.64-.46 1.36-1.1 1.56-.67.22-1.36-.28-1.83-.8a8.3 8.3 0 0 1-2.17-5.38c-.13-5.73-3.35-11.15-4.31-16.8a12.9 12.9 0 0 1 1.07-7.45h-.01Z"/><path fill="#FFB573" d="m301.06 48-.47-.03-.63-.05c-.42-.05-.85-.08-1.3-.15a49.15 49.15 0 0 1-8.08-1.74c-1.8-.54-3.58-1.2-5.35-1.86-.9-.41-1.76-.7-2.63-1.1l-2.02-.91a1.3 1.3 0 0 1-.58-.68c-.23-.62.47-5.62.83-7.34.8-3.78 1.56-9.16 2.93-12.77l-3.96.03a52.4 52.4 0 0 0-5.58 11.4 25.54 25.54 0 0 0-1.36 6.72c-.07 1.37.07 2.74.43 4.07a8.44 8.44 0 0 0 3.85 5.06l.76.44 1.4.77c.93.52 1.9.96 2.85 1.43a58.6 58.6 0 0 0 12.24 4.14c1.1.24 2.16.4 3.27.52.55.08 1.13.13 1.7.17l.88.04h1.04l-.2-8.2-.02.04Z"/><path fill="#FFB573" d="m283.56 21.95 4.6-8.65-8.04 1.1s-2.02 4.76-.34 7.02l3.78.53Z"/><path fill="#FFB573" d="m285.97 7.3-2.53-.04a2.3 2.3 0 0 0-2.31 1.88l-1.01 5.24 8.04-1.08.09-3.62a2.32 2.32 0 0 0-2.26-2.37h-.02Z"/><path fill="#FFB573" d="m281.69 14.58-.22-1.3a7.46 7.46 0 0 1-.06-2l.5-.64c.5-.05.95.23 1.15.69l.37.93 2.6 4.09-1.57 1.32-2.6.18-.3-.39a2.2 2.2 0 0 1 .13-2.9v.02Z"/><path fill="#D6D9E0" d="M313.03 49.55c-1.52-3.05-32.08-9.68-32.08-9.68l-4.03 11.78s29.88 9.91 32.89 6.66c3.13-3.38 5.43-4.3 3.2-8.76h.02Z"/><path fill="#fff" d="M313.03 49.55c-1.52-3.05-32.08-9.68-32.08-9.68l-4.03 11.78s29.88 9.91 32.89 6.66c3.13-3.38 5.43-4.3 3.2-8.76h.02Z" opacity=".3"/><path fill="#000" d="m305.97 51.11-.27 8.95c-3.27-.9-23.2-6.5-23.2-6.5l23.47-2.45Z" opacity=".1"/><path fill="#D6D9E0" d="m282.28 34.27.75 5.98-6.1 11.39s-5.83-2.2-6.14-7.15c-.32-4.95 11.5-10.22 11.5-10.22h-.01Z"/><path fill="#fff" d="m282.28 34.27.75 5.98-6.1 11.39s-5.83-2.2-6.14-7.15c-.32-4.95 11.5-10.22 11.5-10.22h-.01Z" opacity=".5"/><path fill="#FFB573" d="m277.55 258.32-7.84-1.43 2.64-18.38 7.84 1.42-2.64 18.4Zm120.61-105.29 2.03 7.73-17.14 7.4-3.55-7.84 18.66-7.29Z"/><path fill="#D6D9E0" d="M263.82 256.87a3.06 3.06 0 0 1-1.76-.97c-.2-.29-.23-.65-.1-.97.06-.2.23-.36.43-.4 1.09-.29 3.78 2.08 4.07 2.35a.2.2 0 0 1 .05.22.2.2 0 0 1-.2.11c-.84-.04-1.68-.14-2.5-.33l.01-.01Zm-.94-1.94a.68.68 0 0 0-.36-.02c-.09 0-.15.07-.18.16a.67.67 0 0 0 .06.64c.36.54 1.63.94 3.4 1.1a10.4 10.4 0 0 0-2.95-1.9h.03v.02Z"/><path fill="#D6D9E0" d="m266.3 257.2-.07-.04c-.82-.65-2.23-2.8-1.86-3.63.1-.19.3-.42.82-.34.39.04.73.24.95.55.77 1.05.4 3.19.4 3.28 0 .06-.04.13-.1.17-.05.02-.1.03-.16 0h.01Zm-1.03-3.6-.1-.06c-.35-.04-.4.07-.41.12-.23.52.68 2.14 1.48 2.92.15-.9.03-1.81-.37-2.63a.98.98 0 0 0-.61-.36Z"/><path fill="#455170" d="m270.97 253.92 6.82 2.27c.3.09.5.4.43.71l-1.1 10.07c-.15.7-.85 1.14-1.54.97-.06 0-.1-.02-.14-.04-2.96-1-4.34-1.65-8.1-2.86-2.3-.75-9.7-1.95-12.63-3.58-2.93-1.62-1.49-4.62-.12-4.2 4.39 1.36 10.3-.06 13.83-2.7.45-.18 2.07-.8 2.54-.64h.01Zm125.58-92.14-3.65-6.2a.64.64 0 0 1 .15-.83l7.44-6.85a1.3 1.3 0 0 1 1.81.28l.08.13c1.56 2.71 2.18 4.1 4.2 7.49 1.25 2.07 6.03 7.86 7.17 11.03 1.14 3.16-1.93 4.45-2.69 3.24-2.41-3.92-7.8-6.75-12.18-7.08-.46-.17-2.09-.77-2.33-1.2Z"/><path fill="#000" d="M272.35 238.51 271 248l7.82 1.43 1.37-9.47-7.84-1.44Zm101.89-76.28 3.65 8.27 11.04-4.88-2.81-7.89-11.88 4.5Z" opacity=".2"/><path fill="#D6D9E0" d="M352.73 74.02c5.42 4.75 10.6 11.16 9.8 18.32-1.79-5.13-7.99-7.35-13.38-7.03-5.4.32-10.53 2.48-15.9 3.21-2.48.33-5.32.26-7.08-1.54-1.83-1.85-1.8-4.82-1.44-7.41a45 45 0 0 1 4.22-13.54c1.2-2.4 2.8-4.88 5.08-6.36 3.04-1.98 4.14-1.45 5.82 1.31 3.2 5.3 8.27 9 12.86 13.04h.02Z"/><path fill="#fff" d="M352.73 74.02c5.42 4.75 10.6 11.16 9.8 18.32-1.79-5.13-7.99-7.35-13.38-7.03-5.4.32-10.53 2.48-15.9 3.21-2.48.33-5.32.26-7.08-1.54-1.83-1.85-1.8-4.82-1.44-7.41a45 45 0 0 1 4.22-13.54c1.2-2.4 2.8-4.88 5.08-6.36 3.04-1.98 4.14-1.45 5.82 1.31 3.2 5.3 8.27 9 12.86 13.04h.02Z" opacity=".1"/><path fill="#D6D9E0" d="M299.34 57.24c-1.7 11.4 1 14.22 5.62 37.28l29.86.07c-.48-12.42-.43-22.46 4.86-46.9a4.12 4.12 0 0 0-4.01-5.02c-2.47 0-17.4 0-22.27 1.09-4.14 1-5.15 1.55-7.77 2.43-1.54.53-4.62 6.27-6.3 11.04v.02Z"/><path fill="#D6D9E0" d="M337.32 42.68s3.3.72 1.07 11.13c-2.22 10.42-.74-23.7-30.61-6.93-7.42 4.17-7.78 8.75-7.78 8.75s-3.7-6.42 4.78-11.24c8.5-4.82 21.72-3.82 32.52-1.72l.02.01Z"/><path fill="#fff" d="M337.32 42.68s3.3.72 1.07 11.13c-2.22 10.42-.74-23.7-30.61-6.93-7.42 4.17-7.78 8.75-7.78 8.75s-3.7-6.42 4.78-11.24c8.5-4.82 21.72-3.82 32.52-1.72l.02.01Z" opacity=".3"/><path fill="#D6D9E0" d="m271.05 242.14 10.51 2.35s12.95-56.31 18.3-73.15l.4-1.26c5.32-15.88 15.75-39.9 22.52-55 3.74-8.36 6.37-13.98 6.37-13.98l-1.73-.45-13.5-6.1-10.06 1.53s-26.11 41.25-32.15 63.8c-11.67 38.83-.66 82.27-.66 82.27v-.01Z"/><path fill="#fff" d="m271.05 242.14 10.51 2.35s12.95-56.31 18.3-73.15l.4-1.26c5.32-15.88 15.75-39.9 22.52-55 3.74-8.36 6.37-13.98 6.37-13.98l-1.73-.45-13.5-6.1-10.06 1.53s-26.11 41.25-32.15 63.8c-11.67 38.83-.66 82.27-.66 82.27v-.01Z" opacity=".3"/><path fill="#D6D9E0" d="m282.84 247.76-14.8-3.3-.09-4.77 16.7 3.15-1.81 4.92Z"/><path fill="#000" d="m299.86 171.34.4-1.26c5.32-15.88 15.75-39.9 22.52-55l4.64-14.44.9-2.78-1.54 2.6-23.03 38.77c-7.66 13.56-8.83 26.32-3.89 32.1Z" opacity=".2"/><path fill="#D6D9E0" d="M311.38 95.66s-13.32 85.38 14.39 94.99c14.62 5.54 26.93-.47 41.5-6.93 8.42-3.74 18.95-13.83 18.95-13.83l-4.04-11.03s-9.57-3.11-22.3-1.13c-14.21 2.2-14.81 6.24-19.85 3.2-10.62-26.28 7.65-47.04-4.76-65.31l-23.86.04h-.03Z"/><path fill="#fff" d="M311.38 95.66s-13.32 85.38 14.39 94.99c14.62 5.54 26.93-.47 41.5-6.93 8.42-3.74 18.95-13.83 18.95-13.83l-4.04-11.03s-9.57-3.11-22.3-1.13c-14.21 2.2-14.81 6.24-19.85 3.2-10.62-26.28 7.65-47.04-4.76-65.31l-23.86.04h-.03Z" opacity=".3"/><path fill="#D6D9E0" d="m381.37 156.77 5.41 14.3-3.98 3.06-6.43-17.02 5-.34Z"/><path fill="#FFB573" d="M383.6 79.62c1.36 2 8.2.65 8.2.65l1.46-8.49-8.4 3.37-1.24 4.47h-.01Z"/><path fill="#FFB573" d="m393.25 71.77-3 8.38 5.06.75c.56.05 1.07-.33 1.19-.87l1.93-6.31a.59.59 0 0 0-.42-.7l-4.76-1.25Zm-55-25.76 16.9 23.29 31.07 6.1v5.1s-29.18 2.17-35.73-1.66c-6.55-3.83-17.56-26.99-17.56-26.99l5.32-5.85v.01Z"/><path fill="#D6D9E0" d="m354.43 80.91 4.68-12.4-1.08.08a4.55 4.55 0 0 1-4.33-2.3c-3.56-6.37-12.8-22.54-15.41-23.35-3.71-1.1-7.18 3.23-5.37 11.18 1.34 5.94 6.21 12.15 11.26 20.03 4.47 6.98 10.23 6.76 10.23 6.76h.02Z"/><path fill="#fff" d="m354.43 80.91 4.68-12.4-1.08.08a4.55 4.55 0 0 1-4.33-2.3c-3.56-6.37-12.8-22.54-15.41-23.35-3.71-1.1-7.18 3.23-5.37 11.18 1.34 5.94 6.21 12.15 11.26 20.03 4.47 6.98 10.23 6.76 10.23 6.76h.02Z" opacity=".3"/><path fill="#D6D9E0" d="M400.1 165.85v.1c-.14.35-.44.62-.81.69a.66.66 0 0 1-.64-.15c-.76-.68-.27-3.57-.23-3.85 0-.08.06-.14.14-.15.07-.02.14 0 .19.06.6.86 1.56 2.4 1.32 3.3h.02Zm-1.39-2.7c-.16 1.15-.23 2.7.18 3.06.08.07.2.1.3.05a.74.74 0 0 0 .53-.44c.15-.5-.18-1.48-1-2.64v-.03Z"/><path fill="#D6D9E0" d="M398.74 163.01c-.25.96-1.14 2.61-1.95 2.8a.68.68 0 0 1-.74-.37 1.03 1.03 0 0 1-.05-.84c.36-1.1 2.48-2.03 2.56-2.06.05-.04.13-.04.19 0 .05.03.08.1.08.18l-.1.3Zm-2.43 1.75a.61.61 0 0 0 .07.48c.12.2.23.2.32.2.55-.12 1.38-1.47 1.65-2.4-.69.34-1.8 1-2.02 1.67 0 .03 0 .04-.02.05Zm-61.37-71.69.83 2.9c.11.24-.15.47-.52.45l-30.82-.03c-.3 0-.54-.16-.55-.32l-.3-2.93c0-.19.25-.37.56-.35l30.29.03c.2 0 .4.08.52.25h-.01Z"/><path fill="#455170" d="m334.94 93.07.83 2.9c.11.24-.15.47-.52.45l-30.82-.03c-.3 0-.54-.16-.55-.32l-.3-2.93c0-.19.25-.37.56-.35l30.29.03c.2 0 .4.08.52.25h-.01Z"/><path fill="#D6D9E0" d="M329.06 96.7h.89c.17 0 .3-.08.3-.19l-.4-3.79c0-.1-.17-.19-.35-.19h-.9c-.16 0-.3.08-.29.2l.4 3.77c.01.1.18.2.35.2Zm-22.26 0h.9c.17 0 .3-.1.3-.2l-.4-3.78c0-.11-.17-.2-.34-.2h-.9c-.16 0-.3.09-.29.19l.4 3.78c0 .11.15.2.33.2Zm10.2-.02h.9c.16 0 .3-.09.29-.2l-.4-3.77c0-.12-.17-.2-.33-.2h-.9c-.17 0-.3.08-.3.19l.4 3.77c0 .12.16.21.34.21Z"/><path fill="#FFB573" d="M325.56 26.8c-.94 4.87-1.88 13.68 1.42 16.33 0 0-1.31 5-10.15 6.33-9.76 1.47-4.64-4.09-4.64-4.09 5.3-2.11 5.18-5.95 4.26-9.49l9.1-9.07h.01Z"/><path fill="#FFB573" d="m317.3 43.78-5.4 1.26c-.95.22-1.75.87-2.1 1.77-1.05 2.6-1.51 6.41 3.07 7.46 0 0 10.52 2.12 16.58-6.67a3.02 3.02 0 0 0-2.67-4.7c-2.29.13-5.42.38-9.49.9v-.02Z"/><path fill="#000" d="m321.86 30.52-5.39 5.36c.23.83.37 1.68.45 2.54 2.03-.6 5.3-2.85 5.52-5 0-1-.19-2-.58-2.92v.02Z" opacity=".2"/><path fill="#FFB573" d="M331.52 20.64c-2.39 7.57-3.23 10.84-8.13 13.8-7.31 4.49-16.11-.1-16-8.23.07-7.31 3.95-18.47 12.27-19.66a10.8 10.8 0 0 1 11.86 14.1Z"/><path fill="#ED893E" d="M313.5 19.46a17.15 17.15 0 0 1-3.06 3.6c.56.6 1.35.91 2.17.87l.88-4.47Z"/><path fill="#455170" d="M314.35 27.98a5.4 5.4 0 0 1-.9-.17.18.18 0 0 1-.14-.21c.03-.1.13-.16.23-.15a5 5 0 0 0 4.52-.93c.07-.08.19-.06.27 0 .07.08.06.2 0 .27a5.43 5.43 0 0 1-3.97 1.19h-.01Z"/><path fill="#D6D9E0" d="M334.13 5.53a7.38 7.38 0 0 1 3.35 5.86c.01.45-.01.91-.2 1.31-.2.4-.58.73-1.02.76-.68.03-1.18-.6-1.56-1.18l-1.73-2.65c-.56-.87-1.5-1.87-1.8-2.86-.57-1.8 1.91-1.93 2.97-1.26v.02Z"/><path fill="#455170" d="M333.27 7.3c4.75 5.5 6.87 20.7-7.01 24.94-2.33-1.84 1.43-5.18 3.01-9.43 1.04-2.78-4.24-7.96-6.31-10.08-2.08-2.13-3.97-5.2-6.88-4.7-.77.12-1.58.38-2.3.06-2.3-1.05-1.18-2.43-.02-3.4 1.72-1.43 4.12-2.08 6.3-2.31 4.83-.53 10 1.21 13.21 4.94v-.01Z"/><path fill="#FFB573" d="M332.37 27a5.87 5.87 0 0 1-3.71 2.43c-2 .34-2.78-1.49-2.09-3.28.66-1.6 2.47-3.73 4.4-3.28a2.6 2.6 0 0 1 1.4 4.12v.02Z"/><path fill="#455170" d="M318.81 5.94c-1.08 2.75-4.2 2.4-6.5 5.27-1.43 1.76-4.21-3.72-.42-5.9s8.62-3.68 6.92.64v-.01Zm3.29 11.64c-.17.01-.32-.06-.39-.22-.72-1.64-2.92-2.05-2.95-2.05a.38.38 0 0 1-.3-.43c.03-.2.22-.35.43-.31.11.01 2.62.53 3.5 2.5.1.19 0 .4-.18.5h-.12v.01Zm-11.61-3.29a.39.39 0 0 1-.34-.17.37.37 0 0 1 .1-.52 3.75 3.75 0 0 1 3.43-.44c.2.08.28.3.2.5-.07.2-.3.28-.49.2a3 3 0 0 0-2.71.38.54.54 0 0 1-.2.05Z"/><path fill="#D6D9E0" d="m365.3 66.89-6.2 1.75-5.86 12.17s4.72 4.37 9.82.2c3.82-3.14 2.24-14.12 2.24-14.12Z"/><path fill="#fff" d="m365.3 66.89-6.2 1.75-5.86 12.17s4.72 4.37 9.82.2c3.82-3.14 2.24-14.12 2.24-14.12Z" opacity=".5"/><path fill="#455170" d="M310.85 17.31c-.44-.08-.87.4-1 1.06-.12.67.14 1.27.57 1.35.44.08.87-.4 1-1.06.13-.64-.14-1.26-.57-1.35Z"/><path fill="#455170" d="m309.51 16.66 1.51.74c-.9.64-1.5-.74-1.5-.74Zm8.82 2.19c-.44-.08-.87.4-1 1.06-.12.67.14 1.27.57 1.35.44.07.87-.4 1-1.07.13-.64-.14-1.25-.57-1.34Z"/><path fill="#455170" d="m317 18.2 1.5.74c-.9.64-1.5-.75-1.5-.75Z"/><path stroke="#455170" stroke-linecap="round" stroke-linejoin="round" d="M321.83 10.25a7.9 7.9 0 0 1 3.56 5.17c.14.74.16 1.55-.21 2.2-.37.65-1.23 1.07-1.9.74.5.86 1.31 1.92 1.52 2.9.2.97.07 2.07-.6 2.81-.66.75-1.92.98-2.66.31.44.92 1.24 2.13 1.39 3.14a3.37 3.37 0 0 1-.77 2.85c-.71.73-2 .9-2.75.21m-4.84-22.36c-1.9-.91-4-1.41-6.1-1.49-.8-.02-1.67.03-2.32.5-.8.58-1.07 1.68-.93 2.67.14.97.61 1.87 1.08 2.74a3.12 3.12 0 0 0-2.23.09 2.3 2.3 0 0 0-1.52 1.81c-.1.82.44 1.72 1.26 1.89a2.74 2.74 0 0 0-2.24.93c-.65.7-.71 1.77-.42 2.67.3.9.92 1.65 1.52 2.38 0-.1 0-.2.02-.3"/><defs><clipPath id="a"><path fill="#fff" d="M43 23.97 148.98 9l36.45 258.1-105.97 14.97z"/></clipPath></defs></svg>