<svg width="362" height="177" viewBox="0 0 362 177" fill="none" xmlns="http://www.w3.org/2000/svg">
<g clip-path="url(#clip0_9424_250618)">
<path d="M358.006 173.01H343.296H311.596H159.296H115.746H30.2261H23.1861H3.99609" stroke="#EEF2F7" stroke-width="6" stroke-linecap="round"/>
<path opacity="0.4" d="M325.035 173.011H46.6618C45.6748 172.113 44.6433 171.197 43.5852 170.29C25.8551 155.103 23.3743 121.652 44.2877 111.667C70.4027 99.2008 68.4465 85.063 57.0028 66.4526C40.2508 39.2173 56.3093 21.665 78.9031 18.4196C104.138 14.7917 160.911 76.7048 195.456 54.4488C227.03 34.0957 256.302 13.8314 290.82 38.9061C308.247 51.559 311.173 60.8064 301.418 95.413C296.03 114.521 312.702 122.817 324.021 144.157C328.485 152.56 328.849 163.008 325.035 173.011Z" fill="url(#paint0_linear_9424_250618)"/>
<path opacity="0.5" d="M303.937 33.8815C306.476 33.8815 308.534 31.8234 308.534 29.2845C308.534 26.7457 306.476 24.6875 303.937 24.6875C301.398 24.6875 299.34 26.7457 299.34 29.2845C299.34 31.8234 301.398 33.8815 303.937 33.8815Z" fill="#FFE4E3"/>
<path opacity="0.5" d="M46.6341 103.903C48.8439 103.903 50.6354 102.112 50.6354 99.9017C50.6354 97.6918 48.8439 95.9004 46.6341 95.9004C44.4242 95.9004 42.6328 97.6918 42.6328 99.9017C42.6328 102.112 44.4242 103.903 46.6341 103.903Z" fill="#FFE4E3"/>
<path d="M119.698 52.841L111.598 60.9414L94.9171 44.2605C94.2235 44.5806 93.4588 44.7407 92.6941 44.7407C89.7154 44.7407 87.2969 42.3221 87.2969 39.3434C87.2969 36.3647 89.7154 33.9461 92.6941 33.9461C92.6941 30.9674 95.1127 28.5488 98.0914 28.5488C101.07 28.5488 103.489 30.9674 103.489 33.9461C103.489 34.7108 103.329 35.4666 103.009 36.169L119.689 52.8499L119.698 52.841Z" fill="#F0DE9C"/>
<path d="M146.943 81.0818C141.777 90.1602 130.236 93.3435 121.157 88.1774C119.681 87.3415 118.33 86.3101 117.138 85.1097C109.758 77.7296 102.12 58.1144 109.5 50.7343C114.755 45.4882 126.19 47.8356 135.02 52.2904C138.594 54.0954 141.751 56.2472 143.876 58.3812C149.887 64.392 151.149 73.6839 146.952 81.0818H146.943Z" fill="#F0C033"/>
<path d="M146.944 81.0813C135.82 76.7155 130.343 64.1515 134.709 53.0279C134.807 52.779 134.904 52.5389 135.011 52.2988C138.586 54.1038 141.742 56.2556 143.867 58.3897C149.878 64.4005 151.141 73.6923 146.944 81.0902V81.0813Z" fill="#EA8804"/>
<path d="M192.621 23.1347C192.621 20.156 190.212 17.7285 187.224 17.7285C184.245 17.7285 181.818 20.1382 181.818 23.1258C181.818 23.8994 181.978 24.6641 182.298 25.3665L165.617 42.0474L173.718 50.1477L190.398 33.4669C193.119 34.6939 196.311 33.4846 197.538 30.7638C198.766 28.0429 197.556 24.8508 194.835 23.6237C194.133 23.3125 193.377 23.1436 192.612 23.1436L192.621 23.1347Z" fill="#F0DE9C"/>
<path d="M178.679 51.4022C177.79 59.7604 172.935 69.568 168.187 74.3251C160.806 81.7052 148.829 81.7052 141.449 74.3251C134.069 66.9449 134.069 54.9678 141.449 47.5877C148.829 40.2075 168.444 32.5695 175.825 39.9497C178.457 42.5816 179.177 46.7696 178.679 51.4111V51.4022Z" fill="#F0C033"/>
<path d="M178.681 51.4023C177.792 59.7606 172.937 69.5681 168.189 74.3252C166.757 75.7657 165.094 76.9572 163.28 77.873C161.893 76.2191 160.924 74.263 160.435 72.1645C158.915 66.0648 161.876 59.725 167.54 56.9863L178.69 51.4112L178.681 51.4023Z" fill="#EA8804"/>
<path d="M216.924 69.051C216.924 75.0173 212.096 79.8544 206.13 79.8544H173.568C162.169 79.8544 158.541 64.4895 168.74 59.3857L208.833 39.3438C208.833 45.7902 206.281 51.9789 201.711 56.5314C201.106 57.1361 200.466 57.714 199.799 58.2476H206.13C206.539 58.2476 206.957 58.2742 207.366 58.3187C212.816 58.95 216.933 63.5648 216.933 69.051H216.924Z" fill="#F0C033"/>
<path d="M207.366 58.3201C201.729 65.1222 193.353 69.0524 184.523 69.0524H181.82V63.6551H184.523C190.081 63.6551 195.478 61.7523 199.799 58.2578H206.13C206.539 58.2578 206.957 58.2845 207.366 58.3289V58.3201Z" fill="#EA8804"/>
<path d="M95.3984 71.7539H225.031V82.5574H95.3984V71.7539Z" fill="#E6E7E8"/>
<path d="M200.723 174.374H119.702L106.195 82.5488H214.221L200.714 174.374H200.723Z" fill="#F35F61"/>
<path d="M126.847 174.167L114.836 82.6192H133.073L142.127 174.167H126.847Z" fill="white"/>
<path d="M153.023 174.167L152.012 82.6191H170.249L168.303 174.167H153.023Z" fill="white"/>
<path d="M194.006 174.166L205.945 82.5078H187.708L178.726 174.166H194.006Z" fill="white"/>
<path d="M130.503 123.061C130.503 126.039 128.084 128.458 125.106 128.458C124.341 128.458 123.576 128.298 122.883 127.978L116.054 134.807L106.202 144.659L98.1016 136.558L114.782 119.877C113.555 117.156 114.765 113.964 117.486 112.737C120.206 111.51 123.399 112.719 124.626 115.44C124.937 116.143 125.106 116.899 125.106 117.663C128.084 117.663 130.503 120.082 130.503 123.061V123.061Z" fill="#F0DE9C"/>
<path d="M116.045 134.814L106.193 144.666L104.664 143.137C107.42 139.171 111.431 136.246 116.037 134.814H116.045Z" fill="#F0C033"/>
<path d="M103.348 165.642C102.539 166.78 101.641 167.847 100.663 168.843C93.283 176.223 81.3059 176.223 73.9257 168.843C66.5456 161.463 66.5456 149.485 73.9257 142.105C81.3059 134.725 100.921 127.087 108.301 134.467C109.173 135.356 109.857 136.415 110.32 137.57C113.378 145.12 108.826 158.048 103.348 165.642Z" fill="#F0C033"/>
<path d="M171.012 155.47C173.991 155.47 176.409 153.052 176.409 150.073C176.409 147.094 173.991 144.676 171.012 144.676C168.033 144.676 165.615 147.094 165.615 150.073H144.008V160.876H165.615C165.615 163.855 168.033 166.274 171.012 166.274C173.991 166.274 176.409 163.855 176.409 160.876C176.409 157.898 173.991 155.479 171.012 155.479V155.47Z" fill="#F0DE9C"/>
<path d="M103.349 165.641C98.1292 155.878 101.143 143.759 110.32 137.57C113.378 145.119 108.826 158.048 103.349 165.641Z" fill="#EA8804"/>
<path d="M152.111 155.47C152.111 165.909 132.843 174.374 122.404 174.374C111.965 174.374 103.5 165.909 103.5 155.47C103.5 145.031 111.965 136.566 122.404 136.566C132.843 136.566 152.111 145.031 152.111 155.47Z" fill="#F0C033"/>
<path d="M267.107 110.443L260.127 174.099H232.136L225.156 110.443H267.107Z" fill="#515F76"/>
<path d="M229.496 98.8652H262.769C264.37 98.8652 265.659 100.163 265.659 101.755V107.544H226.598V101.755C226.598 100.155 227.896 98.8652 229.487 98.8652H229.496Z" fill="#E6E7E8"/>
<path d="M225.157 104.654H267.117C268.717 104.654 270.006 105.952 270.006 107.544V110.434C270.006 111.234 269.357 111.883 268.557 111.883H223.707C222.907 111.883 222.258 111.234 222.258 110.434V107.544C222.258 105.944 223.556 104.654 225.148 104.654H225.157Z" fill="#D1D4D1"/>
<path d="M250.677 103.24L247.156 102.733L248.952 90.2137L264.904 80.584L266.745 83.625L252.233 92.3833L250.677 103.24Z" fill="#E6E7E8"/>
<path d="M239.755 150.18V163.197H233.113C232.731 163.197 232.375 163.348 232.099 163.615L225.288 170.426L218.477 163.615C218.211 163.348 217.846 163.197 217.464 163.197H193.465V150.18H239.764H239.755Z" fill="#C2704E"/>
<path d="M239.757 144.408C239.677 144.4 239.597 144.391 239.508 144.391H193.458C192.249 144.391 191.102 144.897 190.284 145.778C189.466 146.658 189.048 147.85 189.137 149.05C189.386 151.371 191.369 153.122 193.707 153.069H239.757C240.967 153.069 242.114 152.562 242.932 151.682C243.75 150.802 244.168 149.61 244.079 148.41C243.848 146.178 241.998 144.462 239.757 144.4V144.408Z" fill="#804537"/>
<path d="M239.756 134.271V144.417C239.676 144.408 239.596 144.399 239.507 144.399H218.647C218.265 144.399 217.909 144.55 217.634 144.817L209.373 153.077L201.113 144.817C200.846 144.55 200.481 144.399 200.099 144.399H193.457V134.271H239.756V134.271Z" fill="#F0C419"/>
<path d="M242.646 137.162H190.559C189.758 137.162 189.109 136.512 189.109 135.712V134.263C189.109 130.422 190.63 126.749 193.351 124.028C196.072 121.308 199.744 119.787 203.585 119.787H229.629C237.623 119.787 244.096 126.26 244.096 134.254V135.703C244.096 136.504 243.447 137.153 242.646 137.153V137.162Z" fill="#F29C1F"/>
<path d="M244.094 161.756V166.095C244.094 170.888 240.208 174.773 235.415 174.773H197.803C193.011 174.773 189.125 170.888 189.125 166.095V161.756C189.125 160.956 189.774 160.307 190.574 160.307H217.472C217.854 160.307 218.21 160.458 218.485 160.725L225.297 167.536L232.108 160.725C232.374 160.458 232.739 160.307 233.121 160.307H242.653C243.453 160.307 244.103 160.956 244.103 161.756H244.094Z" fill="#F29C1F"/>
<path d="M205.035 125.584H203.586C202.786 125.584 202.137 126.233 202.137 127.033C202.137 127.834 202.786 128.483 203.586 128.483H205.035C205.836 128.483 206.485 127.834 206.485 127.033C206.485 126.233 205.836 125.584 205.035 125.584Z" fill="#E57E25"/>
<path d="M213.715 128.482H212.266C211.466 128.482 210.816 129.132 210.816 129.932C210.816 130.732 211.466 131.381 212.266 131.381H213.715C214.515 131.381 215.164 130.732 215.164 129.932C215.164 129.132 214.515 128.482 213.715 128.482Z" fill="#E57E25"/>
<path d="M231.078 128.482H229.629C228.829 128.482 228.18 129.132 228.18 129.932C228.18 130.732 228.829 131.381 229.629 131.381H231.078C231.879 131.381 232.528 130.732 232.528 129.932C232.528 129.132 231.879 128.482 231.078 128.482Z" fill="#E57E25"/>
<path d="M222.391 125.584H220.942C220.141 125.584 219.492 126.233 219.492 127.033C219.492 127.834 220.141 128.483 220.942 128.483H222.391C223.191 128.483 223.84 127.834 223.84 127.033C223.84 126.233 223.191 125.584 222.391 125.584Z" fill="#E57E25"/>
<path d="M239.177 137.188C238.999 137.17 238.848 137.161 238.67 137.161H237.426C237.088 137.161 236.776 137.304 236.554 137.561C236.332 137.819 236.243 138.148 236.296 138.477L241.854 174.773H274.104L279.67 138.459C279.715 138.13 279.617 137.793 279.403 137.544C279.181 137.295 278.861 137.152 278.532 137.152H277.305C276.638 137.152 275.98 137.268 275.349 137.481L239.177 137.179V137.188Z" fill="#F35F61"/>
<path d="M260.898 149.477C258.453 149.868 255.963 149.762 253.562 149.157L253.651 148.739V123.825C253.651 123.202 254.158 122.695 254.781 122.695H259.76C260.382 122.695 260.889 123.202 260.889 123.825V149.477H260.898Z" fill="#F0C419"/>
<path d="M246.414 131.373V144.755C245.391 143.546 244.573 142.176 243.995 140.7C243.186 138.709 241.319 137.357 239.176 137.188V132.502C239.176 131.88 239.683 131.373 240.305 131.373H246.414V131.373Z" fill="#F0C419"/>
<path d="M253.652 125.585V148.73L253.563 149.148H253.545C250.753 148.481 248.255 146.943 246.414 144.747V126.705C246.414 126.083 246.921 125.576 247.543 125.576H253.652V125.585Z" fill="#F3D55B"/>
<path d="M268.259 146.072C266.196 147.913 263.635 149.096 260.897 149.469L260.879 149.371V125.586H266.667C267.468 125.586 268.117 126.235 268.117 127.035V145.904L268.259 146.081V146.072Z" fill="#F3D55B"/>
<path d="M275.347 131.053V137.491C273.818 138.024 272.582 139.198 271.977 140.701C271.177 142.755 269.905 144.595 268.269 146.071H268.252L268.109 145.893V129.924H274.218C274.84 129.924 275.347 130.431 275.347 131.053V131.053Z" fill="#F0C419"/>
<path d="M257.263 168.986C260.857 168.986 263.771 166.072 263.771 162.477C263.771 158.883 260.857 155.969 257.263 155.969C253.668 155.969 250.754 158.883 250.754 162.477C250.754 166.072 253.668 168.986 257.263 168.986Z" fill="#E6E7E8"/>
</g>
<defs>
<linearGradient id="paint0_linear_9424_250618" x1="112.95" y1="232.488" x2="254.088" y2="-7.04633" gradientUnits="userSpaceOnUse">
<stop stop-color="#FFE4E3" stop-opacity="0.3"/>
<stop offset="1" stop-color="#FCE1D9"/>
</linearGradient>
<clipPath id="clip0_9424_250618">
<rect width="360.01" height="181.01" fill="white" transform="translate(0.996094 -5)"/>
</clipPath>
</defs>
</svg>
